<?xml version="1.0" encoding="utf-8"?>
<!-- Generator: Adobe Illustrator 16.0.0, SVG Export Plug-In . SVG Version: 6.00 Build 0)  -->
<!DOCTYPE svg PUBLIC "-//W3C//DTD SVG 1.1//EN" "http://www.w3.org/Graphics/SVG/1.1/DTD/svg11.dtd">
<svg version="1.1" id="Layer_1" xmlns="http://www.w3.org/2000/svg" xmlns:xlink="http://www.w3.org/1999/xlink" x="0px" y="0px"
	 width="1025px" height="826px" viewBox="0 0 1025 826" enable-background="new 0 0 1025 826" xml:space="preserve">
<g>
	<g>
		<g>
			<path fill="#FF9300" d="M576.604,510.102c0-140.032-113.519-253.55-253.552-253.55c-140.031,0-253.551,113.519-253.551,253.55
				c0,140.033,113.52,253.553,253.551,253.553c21.082,0,41.557-2.592,61.136-7.438l75.455,44.032v-76.496
				C529.981,678.688,576.604,599.84,576.604,510.102z"/>
		</g>
	</g>
	<g>
		<g>
			<circle fill="#EF8506" cx="277.68" cy="381.052" r="119.072"/>
		</g>
	</g>
	<g>
		<g>
			<g>
				<polygon fill="#FDFFFF" points="445.922,724.832 440.95,724.832 440.95,713.528 450.454,707.438 453.162,711.604 
					445.922,716.248 				"/>
			</g>
		</g>
		<g>
			<g>
				<rect x="440.95" y="737.25" fill="#FDFFFF" width="4.972" height="12.416"/>
			</g>
		</g>
		<g>
			<g>
				<polygon fill="#FDFFFF" points="445.922,776.354 433.594,769.159 436.101,764.865 440.95,767.694 440.95,762.081 
					445.922,762.081 				"/>
			</g>
		</g>
		<g>
			<g>
				<path fill="#FDFFFF" d="M416.605,759.247l-16.987-9.915l2.508-4.295l16.988,9.913L416.605,759.247z M325.217,749.922
					l-0.045-4.973c6.466-0.061,13.003-0.385,19.438-0.978l0.449,4.954C338.493,749.527,331.819,749.863,325.217,749.922z
					 M305.367,749.285c-6.583-0.483-13.221-1.244-19.73-2.271l0.772-4.91c6.375,1,12.873,1.75,19.32,2.225L305.367,749.285z
					 M364.754,746.307l-0.859-4.896c5.291-0.933,10.607-2.053,15.802-3.34l3.246-0.805l1.192,4.823l-3.244,0.809
					C375.584,744.211,370.158,745.356,364.754,746.307z M266.16,743.112c-6.404-1.563-12.826-3.418-19.082-5.516l1.578-4.715
					c6.126,2.053,12.413,3.867,18.685,5.398L266.16,743.112z M228.506,730.507c-6.055-2.604-12.081-5.507-17.914-8.612l2.34-4.391
					c5.709,3.044,11.611,5.883,17.54,8.438L228.506,730.507z M193.461,711.827c-5.537-3.57-11.003-7.421-16.241-11.443l3.03-3.94
					c5.128,3.938,10.481,7.712,15.908,11.208L193.461,711.827z M469.778,699.845l-3.04-3.933c5.115-3.951,10.124-8.159,14.89-12.508
					l3.354,3.674C480.115,691.519,475,695.814,469.778,699.845z M161.978,687.644c-4.881-4.434-9.641-9.126-14.146-13.943
					l3.632-3.396c4.415,4.724,9.074,9.317,13.855,13.658L161.978,687.644z M499.083,673.098l-3.643-3.381
					c4.396-4.735,8.646-9.714,12.63-14.788l3.913,3.068C507.916,663.179,503.576,668.26,499.083,673.098z M134.879,658.638
					c-4.095-5.176-8.021-10.582-11.668-16.067l4.14-2.753c3.572,5.374,7.419,10.67,11.429,15.738L134.879,658.638z M523.583,641.873
					l-4.155-2.733c3.557-5.396,6.921-11.007,10.007-16.678l4.367,2.376C530.646,630.63,527.211,636.361,523.583,641.873z
					 M112.905,625.593c-3.187-5.775-6.169-11.758-8.864-17.77l4.54-2.032c2.635,5.887,5.557,11.74,8.679,17.399L112.905,625.593z
					 M542.565,607.008l-4.553-2.006c2.608-5.912,4.995-12.006,7.103-18.115l4.701,1.619
					C547.667,594.744,545.229,600.968,542.565,607.008z M96.69,589.385c-2.187-6.229-4.137-12.62-5.794-19.002l4.812-1.25
					c1.623,6.251,3.529,12.505,5.671,18.604L96.69,589.385z M555.5,569.465l-4.82-1.224c1.59-6.259,2.937-12.667,3.999-19.047
					l4.904,0.816C558.496,556.527,557.121,563.073,555.5,569.465z M86.706,550.966c-1.117-6.482-1.979-13.112-2.557-19.694
					l4.951-0.436c0.568,6.445,1.41,12.936,2.505,19.285L86.706,550.966z M562.045,530.292l-4.954-0.411
					c0.535-6.431,0.813-12.979,0.82-19.455l4.972,0.007C562.876,517.047,562.593,523.727,562.045,530.292z M83.227,511.433
					l-0.005-1.333c0-6.16,0.237-12.391,0.708-18.513l4.959,0.381c-0.459,5.995-0.694,12.099-0.694,18.132l0.005,1.308
					L83.227,511.433z M557.141,490.984c-0.521-6.447-1.316-12.94-2.369-19.304l4.904-0.813c1.074,6.496,1.893,13.131,2.422,19.714
					L557.141,490.984z M91.176,472.656l-4.907-0.791c1.046-6.521,2.384-13.064,3.969-19.465l4.827,1.195
					C93.51,459.861,92.203,466.272,91.176,472.656z M550.802,452.644c-1.58-6.259-3.441-12.528-5.541-18.645l4.702-1.615
					c2.145,6.243,4.046,12.65,5.661,19.041L550.802,452.644z M100.529,434.93l-4.709-1.591c2.115-6.247,4.522-12.488,7.157-18.549
					l4.56,1.983C104.959,422.708,102.599,428.815,100.529,434.93z M538.188,415.895c-2.601-5.904-5.479-11.78-8.56-17.453
					l4.369-2.373c3.146,5.796,6.086,11.793,8.738,17.83L538.188,415.895z M116.033,399.266l-4.38-2.354
					c3.123-5.809,6.528-11.56,10.126-17.098l4.167,2.708C122.427,387.944,119.089,393.579,116.033,399.266z M519.651,381.747
					c-3.536-5.402-7.35-10.725-11.318-15.819l3.919-3.057c4.056,5.201,7.945,10.634,11.558,16.15L519.651,381.747z M137.212,366.654
					l-3.935-3.043c4.038-5.217,8.341-10.331,12.793-15.2l3.67,3.354C145.38,356.534,141.164,361.542,137.212,366.654z
					 M495.747,351.093c-4.374-4.75-9.003-9.38-13.761-13.755l3.37-3.658c4.852,4.47,9.581,9.194,14.048,14.042L495.747,351.093z
					 M163.448,337.959l-3.382-3.645c4.834-4.487,9.914-8.826,15.103-12.903l3.072,3.912
					C173.158,329.313,168.182,333.566,163.448,337.959z M467.145,324.755c-5.1-3.972-10.427-7.78-15.828-11.317l2.721-4.159
					c5.52,3.611,10.957,7.497,16.164,11.555L467.145,324.755z M194.018,313.947l-2.74-4.149c5.512-3.636,11.234-7.083,17.013-10.243
					l2.385,4.362C205.019,307.01,199.415,310.385,194.018,313.947z M434.605,303.467c-5.688-3.084-11.57-5.962-17.481-8.557l2-4.551
					c6.034,2.647,12.041,5.587,17.85,8.736L434.605,303.467z M228.104,295.298l-2.014-4.544c6.023-2.675,12.235-5.127,18.464-7.292
					l1.632,4.697C240.087,290.279,234.005,292.678,228.104,295.298z M398.991,287.839c-6.112-2.095-12.386-3.955-18.646-5.53
					l1.212-4.822c6.396,1.611,12.804,3.51,19.047,5.647L398.991,287.839z M264.808,282.552l-1.235-4.817
					c6.387-1.635,12.923-3.022,19.432-4.119l0.828,4.901C277.461,279.593,271.06,280.949,264.808,282.552z M361.304,278.356
					c-6.356-1.045-12.853-1.84-19.305-2.358l0.395-4.954c6.592,0.527,13.226,1.337,19.72,2.407L361.304,278.356z M303.125,276.081
					l-0.417-4.954c6.559-0.555,13.235-0.843,19.845-0.856l0.01,4.972C316.088,275.255,309.552,275.539,303.125,276.081z"/>
			</g>
		</g>
	</g>
	<g>
		<g>
			<path fill="#504887" d="M428.632,806.047c-1.01,0-2.021-0.263-2.924-0.79l-73.433-42.854
				c-19.674,4.677-39.925,7.049-60.231,7.049c-143.009,0-259.352-116.344-259.352-259.354
				c0-143.007,116.343-259.353,259.352-259.353c143.005,0,259.351,116.346,259.351,259.353c0,87.786-43.661,168.594-116.961,216.806
				v73.343c0,2.078-1.109,3.996-2.909,5.03C430.626,805.791,429.629,806.047,428.632,806.047z M353.178,750.413
				c1.021,0,2.029,0.27,2.926,0.792l66.729,38.939V723.75c0-1.974,1.008-3.815,2.672-4.885
				c71.564-45.844,114.291-123.891,114.291-208.768c0-136.607-111.141-247.75-247.749-247.75
				c-136.609,0-247.752,111.141-247.752,247.75c0,136.609,111.143,247.75,247.752,247.75c20.162,0,40.262-2.441,59.74-7.269
				C352.243,750.472,352.713,750.413,353.178,750.413z"/>
		</g>
	</g>
	<g>
		<g>
			<circle fill="#FF9300" cx="492.767" cy="257.436" r="39.367"/>
		</g>
	</g>
	<g>
		<g>
			<circle fill="#FF9300" cx="61.316" cy="751.374" r="55.316"/>
		</g>
	</g>
	<g>
		<g>
			<circle fill="#FF9300" cx="340.611" cy="802.315" r="19.684"/>
		</g>
	</g>
</g>
<g>
	<g>
		<path fill="#504887" d="M254.107,395.088l-9.298,30.106h-6.323l-5.662-18.658c-0.11-0.29-0.214-0.61-0.31-0.961
			c-0.096-0.354-0.193-0.72-0.289-1.105c-0.097,0.389-0.193,0.754-0.29,1.105c-0.096,0.351-0.2,0.671-0.31,0.961l-5.745,18.658
			h-6.323l-9.298-30.106h5.868c0.606,0,1.112,0.138,1.519,0.414c0.406,0.275,0.671,0.64,0.795,1.095l4.133,15.704
			c0.124,0.496,0.248,1.036,0.372,1.622s0.248,1.195,0.372,1.828c0.248-1.294,0.551-2.444,0.909-3.45l4.876-15.704
			c0.124-0.385,0.389-0.73,0.795-1.042c0.406-0.31,0.899-0.465,1.478-0.465h2.066c0.606,0,1.095,0.142,1.467,0.424
			c0.372,0.282,0.654,0.644,0.847,1.083l4.835,15.704c0.358,0.964,0.661,2.063,0.909,3.285c0.11-0.62,0.224-1.201,0.341-1.746
			c0.117-0.544,0.237-1.057,0.361-1.539l4.133-15.704c0.11-0.396,0.372-0.75,0.785-1.054c0.413-0.303,0.909-0.455,1.488-0.455
			H254.107L254.107,395.088z"/>
	</g>
	<g>
		<path fill="#504887" d="M263.303,397.898c0,0.51-0.103,0.986-0.31,1.437c-0.207,0.447-0.489,0.84-0.847,1.178
			s-0.774,0.606-1.25,0.809c-0.475,0.2-0.981,0.3-1.519,0.3c-0.524,0-1.013-0.102-1.467-0.3c-0.455-0.199-0.857-0.471-1.208-0.809
			c-0.352-0.338-0.627-0.729-0.827-1.178s-0.3-0.927-0.3-1.437c0-0.523,0.1-1.015,0.3-1.47c0.2-0.455,0.475-0.854,0.827-1.199
			c0.351-0.344,0.754-0.613,1.208-0.806c0.454-0.193,0.943-0.289,1.467-0.289c0.537,0,1.043,0.096,1.519,0.289
			c0.476,0.193,0.892,0.462,1.25,0.806c0.358,0.345,0.641,0.744,0.847,1.199C263.2,396.886,263.303,397.375,263.303,397.898z
			 M262.642,403.767v21.431h-6.405v-21.431H262.642L262.642,403.767z"/>
	</g>
	<g>
		<path fill="#504887" d="M274.791,425.525c-1.02,0-1.918-0.148-2.696-0.444c-0.778-0.297-1.433-0.717-1.963-1.261
			c-0.531-0.544-0.934-1.202-1.209-1.977c-0.276-0.771-0.413-1.632-0.413-2.583v-11.075h-1.818c-0.331,0-0.613-0.104-0.847-0.317
			c-0.234-0.213-0.352-0.526-0.352-0.939v-2.501l3.41-0.661l1.26-5.228c0.166-0.661,0.633-0.992,1.405-0.992h3.347v6.261h5.311v4.38
			h-5.311v10.645c0,0.496,0.121,0.906,0.362,1.229c0.241,0.324,0.589,0.485,1.043,0.485c0.234,0,0.43-0.022,0.589-0.072
			c0.158-0.048,0.296-0.104,0.413-0.165c0.117-0.063,0.228-0.115,0.331-0.165c0.104-0.049,0.224-0.069,0.362-0.069
			c0.192,0,0.348,0.045,0.465,0.134c0.117,0.09,0.238,0.229,0.361,0.424l1.942,3.037c-0.826,0.62-1.756,1.085-2.79,1.395
			C276.961,425.37,275.893,425.525,274.791,425.525z"/>
	</g>
	<g>
		<path fill="#504887" d="M289.399,405.647c0.771-0.661,1.608-1.195,2.51-1.604c0.902-0.407,1.98-0.609,3.234-0.609
			c1.171,0,2.208,0.203,3.11,0.609s1.663,0.971,2.283,1.694c0.62,0.723,1.088,1.584,1.405,2.583
			c0.316,0.999,0.475,2.084,0.475,3.254v13.617h-6.406v-13.617c0-1.046-0.241-1.862-0.723-2.448
			c-0.482-0.585-1.191-0.878-2.128-0.878c-0.703,0-1.361,0.148-1.974,0.444c-0.613,0.296-1.208,0.696-1.787,1.208v15.291h-6.406
			V394.26h6.406L289.399,405.647L289.399,405.647z"/>
	</g>
	<g>
		<path fill="#504887" d="M315.62,406.742c1.295-1.146,2.729-1.994,4.308-2.552c1.577-0.561,3.271-0.84,5.073-0.84
			c1.295,0,2.462,0.21,3.502,0.633c1.04,0.421,1.922,1.006,2.646,1.757c0.723,0.751,1.274,1.643,1.661,2.676
			c0.388,1.033,0.578,2.163,0.578,3.389v13.393h-2.934c-0.606,0-1.064-0.083-1.374-0.248s-0.568-0.511-0.775-1.033l-0.454-1.178
			c-0.535,0.455-1.055,0.854-1.551,1.195c-0.496,0.348-1.009,0.641-1.539,0.882c-0.528,0.238-1.095,0.42-1.691,0.534
			c-0.603,0.116-1.267,0.179-1.994,0.179c-0.979,0-1.867-0.128-2.666-0.386c-0.799-0.255-1.479-0.63-2.035-1.126
			c-0.558-0.493-0.989-1.109-1.292-1.85c-0.303-0.736-0.455-1.587-0.455-2.552c0-0.771,0.193-1.556,0.579-2.348
			c0.385-0.792,1.054-1.516,2.004-2.17c0.95-0.651,2.231-1.199,3.843-1.643c1.611-0.44,3.646-0.688,6.098-0.744v-0.909
			c0-1.253-0.258-2.159-0.775-2.717c-0.517-0.559-1.25-0.837-2.2-0.837c-0.758,0-1.378,0.082-1.857,0.248
			c-0.482,0.165-0.913,0.351-1.292,0.558s-0.748,0.396-1.105,0.561c-0.355,0.166-0.785,0.248-1.28,0.248
			c-0.439,0-0.813-0.11-1.114-0.33c-0.306-0.224-0.554-0.482-0.744-0.785L315.62,406.742z M327.149,416.475
			c-1.281,0.059-2.335,0.165-3.161,0.331c-0.827,0.165-1.481,0.371-1.963,0.619c-0.482,0.248-0.816,0.53-1.002,0.851
			c-0.188,0.313-0.279,0.658-0.279,1.03c0,0.73,0.199,1.243,0.599,1.539c0.399,0.297,0.985,0.444,1.756,0.444
			c0.827,0,1.55-0.146,2.169-0.434c0.62-0.29,1.247-0.761,1.883-1.405L327.149,416.475L327.149,416.475z"/>
	</g>
	<g>
		<path fill="#504887" d="M353.039,406.412c0.84-0.896,1.794-1.629,2.862-2.201c1.064-0.571,2.338-0.857,3.812-0.857
			c1.116,0,2.149,0.248,3.1,0.744c0.951,0.496,1.771,1.212,2.462,2.148c0.688,0.938,1.229,2.084,1.62,3.438
			c0.395,1.357,0.591,2.896,0.591,4.618c0,1.612-0.227,3.103-0.675,4.464c-0.445,1.363-1.071,2.551-1.88,3.557
			c-0.806,1.006-1.771,1.791-2.893,2.354c-1.123,0.564-2.366,0.851-3.729,0.851c-1.113,0-2.053-0.159-2.81-0.479
			c-0.758-0.313-1.447-0.744-2.066-1.281v8.227h-6.403v-28.229h3.967c0.799,0,1.323,0.358,1.57,1.075L353.039,406.412z
			 M353.432,419.367c0.482,0.521,1.006,0.896,1.57,1.116c0.564,0.22,1.157,0.329,1.777,0.329c0.592,0,1.137-0.115,1.632-0.353
			c0.496-0.234,0.926-0.61,1.292-1.127c0.365-0.516,0.65-1.188,0.854-2.015c0.207-0.826,0.313-1.831,0.313-3.02
			c0-1.129-0.083-2.079-0.248-2.852c-0.165-0.771-0.396-1.396-0.692-1.869c-0.296-0.479-0.648-0.816-1.063-1.023
			c-0.413-0.206-0.875-0.31-1.384-0.31c-0.938,0-1.708,0.172-2.314,0.517c-0.604,0.347-1.185,0.85-1.735,1.511L353.432,419.367
			L353.432,419.367z"/>
	</g>
	<g>
		<path fill="#504887" d="M377.194,394.262v30.932h-6.406v-30.932H377.194z"/>
	</g>
	<g>
		<path fill="#504887" d="M381.058,406.742c1.296-1.146,2.731-1.994,4.311-2.552c1.577-0.561,3.268-0.84,5.073-0.84
			c1.295,0,2.462,0.21,3.502,0.633c1.04,0.421,1.922,1.006,2.645,1.757s1.277,1.643,1.663,2.676s0.579,2.163,0.579,3.389v13.393
			h-2.936c-0.604,0-1.063-0.083-1.375-0.248c-0.31-0.165-0.565-0.511-0.772-1.033l-0.455-1.178c-0.537,0.455-1.054,0.854-1.55,1.195
			c-0.496,0.348-1.009,0.641-1.539,0.882c-0.531,0.238-1.095,0.42-1.694,0.534c-0.599,0.116-1.264,0.179-1.994,0.179
			c-0.979,0-1.864-0.128-2.666-0.386c-0.799-0.255-1.478-0.63-2.032-1.126c-0.561-0.493-0.989-1.109-1.292-1.85
			c-0.306-0.736-0.455-1.587-0.455-2.552c0-0.771,0.19-1.556,0.579-2.348c0.385-0.792,1.054-1.516,2.004-2.17
			c0.949-0.651,2.229-1.199,3.843-1.643c1.611-0.44,3.643-0.688,6.095-0.744v-0.909c0-1.253-0.258-2.159-0.772-2.717
			c-0.52-0.559-1.25-0.837-2.2-0.837c-0.758,0-1.378,0.082-1.86,0.248c-0.479,0.165-0.913,0.351-1.292,0.558
			s-0.748,0.396-1.104,0.561c-0.358,0.166-0.785,0.248-1.281,0.248c-0.441,0-0.813-0.11-1.116-0.33
			c-0.303-0.224-0.551-0.482-0.744-0.785L381.058,406.742z M392.587,416.475c-1.281,0.059-2.335,0.165-3.161,0.331
			c-0.827,0.165-1.479,0.371-1.963,0.619c-0.482,0.248-0.816,0.53-1.002,0.851c-0.186,0.313-0.279,0.658-0.279,1.03
			c0,0.73,0.199,1.243,0.602,1.539c0.396,0.297,0.982,0.444,1.756,0.444c0.827,0,1.55-0.146,2.169-0.434
			c0.62-0.29,1.247-0.761,1.88-1.405L392.587,416.475L392.587,416.475z"/>
	</g>
	<g>
		<path fill="#504887" d="M408.828,406.081c0.414-0.386,0.84-0.744,1.281-1.074c0.438-0.331,0.912-0.606,1.416-0.837
			c0.502-0.228,1.046-0.406,1.632-0.537c0.585-0.131,1.222-0.196,1.911-0.196c1.171,0,2.208,0.203,3.107,0.609
			c0.902,0.406,1.663,0.971,2.283,1.694c0.62,0.723,1.088,1.584,1.405,2.583c0.313,0.999,0.475,2.084,0.475,3.254v13.617h-6.406
			v-13.617c0-1.046-0.238-1.862-0.723-2.448c-0.479-0.585-1.188-0.878-2.128-0.878c-0.703,0-1.361,0.148-1.974,0.444
			c-0.613,0.296-1.208,0.696-1.787,1.208v15.291h-6.406v-21.431h3.967c0.799,0,1.323,0.358,1.57,1.075L408.828,406.081z"/>
	</g>
</g>
<g>
	<path fill="#504887" d="M233.277,604.77c2.121,0,3.943,0.254,5.465,0.757c1.522,0.503,2.776,1.192,3.761,2.073
		c0.985,0.885,1.711,1.925,2.18,3.12c0.468,1.199,0.703,2.494,0.703,3.888c0,1.502-0.241,2.88-0.723,4.133
		c-0.482,1.254-1.219,2.328-2.211,3.224c-0.992,0.896-2.249,1.595-3.771,2.097c-1.522,0.506-3.323,0.758-5.403,0.758h-3.637v10.063
		h-6.984V604.77H233.277z M233.277,619.543c1.818,0,3.127-0.434,3.926-1.302c0.799-0.868,1.199-2.08,1.199-3.638
		c0-0.688-0.104-1.314-0.31-1.882c-0.206-0.563-0.52-1.051-0.94-1.457c-0.42-0.403-0.951-0.72-1.591-0.938
		c-0.641-0.22-1.402-0.33-2.283-0.33h-3.637v9.546H233.277L233.277,619.543z"/>
	<path fill="#504887" d="M252.617,625.308c0.207,1.791,0.751,3.093,1.632,3.896c0.882,0.806,2.018,1.209,3.41,1.209
		c0.744,0,1.384-0.09,1.921-0.271c0.538-0.18,1.016-0.379,1.436-0.6c0.42-0.22,0.806-0.42,1.157-0.6
		c0.352-0.182,0.72-0.271,1.105-0.271c0.51,0,0.896,0.188,1.157,0.562l1.86,2.293c-0.662,0.758-1.375,1.374-2.139,1.85
		c-0.765,0.477-1.55,0.847-2.355,1.116c-0.806,0.269-1.612,0.454-2.418,0.558c-0.806,0.104-1.574,0.155-2.304,0.155
		c-1.501,0-2.91-0.245-4.226-0.734c-1.315-0.485-2.466-1.215-3.451-2.18c-0.985-0.964-1.764-2.162-2.335-3.595
		c-0.572-1.436-0.857-3.102-0.857-5.001c0-1.435,0.244-2.789,0.733-4.07c0.489-1.281,1.191-2.403,2.108-3.368
		c0.916-0.964,2.025-1.729,3.327-2.294c1.302-0.563,2.772-0.847,4.412-0.847c1.418,0,2.717,0.221,3.895,0.661
		c1.178,0.438,2.19,1.081,3.038,1.922c0.847,0.84,1.508,1.869,1.984,3.089c0.475,1.219,0.713,2.602,0.713,4.144
		c0,0.481-0.021,0.875-0.062,1.18c-0.042,0.304-0.117,0.545-0.228,0.724c-0.111,0.18-0.258,0.303-0.444,0.372
		c-0.186,0.068-0.423,0.104-0.713,0.104h-12.356V625.308z M260.675,621.589c0-0.51-0.065-1.006-0.196-1.488
		c-0.131-0.479-0.344-0.909-0.641-1.291c-0.297-0.379-0.685-0.686-1.167-0.92c-0.482-0.23-1.067-0.351-1.756-0.351
		c-1.212,0-2.163,0.348-2.851,1.043c-0.689,0.696-1.144,1.698-1.364,3.007H260.675L260.675,621.589z"/>
	<path fill="#504887" d="M275.614,616.754c0.662-1.157,1.422-2.063,2.284-2.728c0.86-0.661,1.849-0.992,2.965-0.992
		c0.964,0,1.75,0.228,2.355,0.682l-0.413,4.712c-0.069,0.303-0.183,0.51-0.341,0.619c-0.159,0.11-0.375,0.166-0.651,0.166
		c-0.11,0-0.255-0.007-0.434-0.021c-0.179-0.016-0.365-0.03-0.558-0.054c-0.193-0.021-0.39-0.042-0.589-0.063
		c-0.199-0.021-0.382-0.031-0.547-0.031c-0.937,0-1.684,0.248-2.242,0.744s-1.03,1.185-1.416,2.066v13.018h-6.406v-21.428h3.802
		c0.316,0,0.582,0.025,0.795,0.083c0.213,0.055,0.393,0.142,0.537,0.258c0.145,0.117,0.255,0.271,0.331,0.466
		c0.076,0.192,0.141,0.427,0.196,0.702L275.614,616.754z"/>
	<path fill="#504887" d="M294.086,634.875v-21.428h3.967c0.799,0,1.323,0.355,1.57,1.075l0.352,1.153
		c0.358-0.371,0.73-0.713,1.116-1.021c0.386-0.312,0.802-0.578,1.25-0.809c0.448-0.228,0.93-0.403,1.446-0.534
		c0.517-0.134,1.085-0.196,1.705-0.196c1.294,0,2.366,0.334,3.213,1.002s1.491,1.56,1.932,2.676
		c0.358-0.661,0.795-1.226,1.313-1.691c0.517-0.471,1.074-0.85,1.674-1.14c0.599-0.289,1.232-0.502,1.901-0.641
		c0.668-0.137,1.333-0.206,1.991-0.206c1.229,0,2.314,0.183,3.268,0.547c0.95,0.365,1.746,0.896,2.386,1.592
		c0.643,0.695,1.126,1.55,1.457,2.563c0.331,1.013,0.496,2.159,0.496,3.438v13.617h-6.405v-13.617c0-2.218-0.951-3.326-2.852-3.326
		c-0.868,0-1.588,0.286-2.159,0.857c-0.572,0.571-0.857,1.396-0.857,2.469v13.617h-6.403v-13.617c0-1.226-0.241-2.087-0.723-2.583
		c-0.482-0.495-1.191-0.743-2.128-0.743c-0.578,0-1.126,0.134-1.643,0.396s-1.002,0.613-1.457,1.054v15.497L294.086,634.875
		L294.086,634.875z"/>
	<path fill="#504887" d="M339.131,613.117c1.625,0,3.106,0.255,4.442,0.765s2.48,1.239,3.438,2.189
		c0.958,0.951,1.701,2.104,2.232,3.462c0.53,1.354,0.795,2.882,0.795,4.576c0,1.708-0.267,3.248-0.795,4.615
		c-0.531,1.371-1.274,2.535-2.232,3.492c-0.958,0.958-2.104,1.694-3.438,2.211c-1.336,0.52-2.817,0.775-4.442,0.775
		c-1.639,0-3.13-0.259-4.474-0.775c-1.343-0.517-2.5-1.253-3.472-2.211c-0.973-0.957-1.724-2.121-2.254-3.492
		c-0.527-1.367-0.795-2.907-0.795-4.615c0-1.694,0.268-3.223,0.795-4.576c0.53-1.357,1.281-2.511,2.254-3.462
		c0.972-0.95,2.129-1.683,3.472-2.189C336,613.372,337.492,613.117,339.131,613.117z M339.131,630.453
		c1.477,0,2.562-0.521,3.254-1.563c0.695-1.038,1.043-2.619,1.043-4.739c0-2.122-0.348-3.699-1.043-4.732
		c-0.693-1.033-1.777-1.55-3.254-1.55c-1.516,0-2.624,0.517-3.327,1.55s-1.054,2.61-1.054,4.732c0,2.12,0.352,3.702,1.054,4.739
		C336.507,629.933,337.615,630.453,339.131,630.453z"/>
	<path fill="#504887" d="M359.174,615.762c0.414-0.386,0.84-0.744,1.281-1.071c0.439-0.331,0.912-0.609,1.416-0.839
		c0.502-0.229,1.046-0.404,1.632-0.535c0.585-0.133,1.222-0.196,1.911-0.196c1.171,0,2.208,0.203,3.11,0.608
		c0.899,0.404,1.663,0.972,2.28,1.692c0.62,0.726,1.089,1.584,1.405,2.583s0.478,2.084,0.478,3.254v13.617h-6.406v-13.617
		c0-1.046-0.241-1.859-0.726-2.445c-0.479-0.588-1.188-0.881-2.128-0.881c-0.703,0-1.358,0.148-1.974,0.444
		s-1.208,0.699-1.787,1.208v15.291h-6.406v-21.428h3.97c0.799,0,1.32,0.355,1.567,1.075L359.174,615.762z"/>
	<path fill="#504887" d="M384.197,635.206c-1.021,0-1.918-0.148-2.696-0.444c-0.778-0.297-1.433-0.717-1.963-1.261
		c-0.531-0.544-0.937-1.202-1.209-1.974c-0.276-0.771-0.413-1.633-0.413-2.583v-11.075h-1.818c-0.331,0-0.61-0.106-0.847-0.32
		c-0.234-0.213-0.352-0.523-0.352-0.938v-2.501l3.407-0.661l1.263-5.229c0.166-0.661,0.633-0.991,1.402-0.991h3.35v6.264h5.311v4.38
		h-5.311v10.642c0,0.496,0.121,0.906,0.359,1.229c0.241,0.323,0.589,0.483,1.043,0.483c0.234,0,0.433-0.021,0.591-0.07
		c0.156-0.049,0.297-0.104,0.411-0.165c0.117-0.063,0.229-0.117,0.331-0.165c0.104-0.049,0.227-0.072,0.362-0.072
		c0.192,0,0.348,0.045,0.465,0.134c0.117,0.092,0.238,0.231,0.361,0.426l1.94,3.035c-0.824,0.62-1.757,1.087-2.791,1.396
		C386.367,635.051,385.299,635.206,384.197,635.206z"/>
	<path fill="#504887" d="M398.805,615.328c0.771-0.661,1.608-1.195,2.513-1.604c0.899-0.404,1.979-0.606,3.231-0.606
		c1.171,0,2.208,0.203,3.11,0.606c0.899,0.406,1.663,0.974,2.283,1.694c0.618,0.722,1.088,1.584,1.402,2.583
		c0.316,0.999,0.478,2.084,0.478,3.254v13.617h-6.406v-13.617c0-1.046-0.241-1.862-0.723-2.448
		c-0.482-0.585-1.191-0.878-2.129-0.878c-0.702,0-1.36,0.148-1.976,0.444c-0.612,0.296-1.208,0.699-1.787,1.208v15.291h-6.403
		V603.94h6.403L398.805,615.328L398.805,615.328z"/>
</g>
<g>
	<path fill="#FFFFFF" d="M175.651,517.202c0-1.713,0.546-3.203,1.639-4.468c1.093-1.267,2.732-1.896,4.917-1.896h5.4v-13.885
		c0-4.071,0.621-7.939,1.864-11.604c1.243-3.664,3.139-6.889,5.689-9.675c2.549-2.785,5.742-5.004,9.578-6.65
		c3.835-1.649,8.367-2.479,13.596-2.479c3.472,0,6.61,0.44,9.418,1.318c2.806,0.879,5.313,2.1,7.521,3.664
		c2.207,1.563,4.146,3.404,5.817,5.525s3.128,4.403,4.372,6.85l-7.971,5.014c-1.8,0.943-3.547,1.361-5.239,1.254
		c-1.694-0.104-3.247-0.91-4.661-2.411c-1.629-1.671-3.108-2.914-4.436-3.729c-1.329-0.813-2.936-1.224-4.822-1.224
		c-3.471,0-6.054,1.211-7.746,3.635c-1.693,2.422-2.539,5.901-2.539,10.443v13.949h24.428v7.586c0,0.646-0.14,1.254-0.418,1.832
		c-0.279,0.578-0.665,1.104-1.157,1.575c-0.493,0.472-1.072,0.847-1.736,1.125c-0.665,0.279-1.404,0.418-2.218,0.418h-18.899v10.03
		c0,2.568-0.482,4.896-1.447,6.975c-0.964,2.079-2.261,4.018-3.889,5.817c1.929-0.431,3.857-0.763,5.786-0.996
		c1.929-0.235,3.878-0.354,5.85-0.354h32.271v8.164c0,0.943-0.204,1.907-0.611,2.896c-0.408,0.983-0.976,1.876-1.704,2.668
		c-0.729,0.794-1.618,1.437-2.668,1.929c-1.05,0.493-2.218,0.739-3.503,0.739h-61.328V549.28c1.415-0.257,2.774-0.664,4.083-1.225
		c1.307-0.556,2.453-1.264,3.439-2.118c0.985-0.856,1.778-1.889,2.378-3.088c0.6-1.197,0.9-2.593,0.9-4.179v-15.3h-11.957V517.2
		L175.651,517.202L175.651,517.202z"/>
	<path fill="#FFFFFF" d="M316.047,546.838v14.399h-53.356v-14.399h18v-47.249c0-1.2,0.021-2.411,0.064-3.633
		c0.042-1.221,0.106-2.452,0.193-3.696l-10.671,8.871c-0.943,0.729-1.875,1.169-2.796,1.318c-0.922,0.147-1.79,0.147-2.604,0
		c-0.814-0.149-1.543-0.428-2.186-0.836c-0.643-0.406-1.115-0.824-1.415-1.254l-6.3-8.356l29.185-24.492h16.457v79.327H316.047z"/>
	<path fill="#FFFFFF" d="M390.615,546.838v14.399h-53.356v-14.399h18v-47.249c0-1.2,0.021-2.411,0.064-3.633
		c0.042-1.221,0.104-2.452,0.19-3.696l-10.671,8.871c-0.94,0.729-1.875,1.169-2.796,1.318c-0.922,0.147-1.79,0.147-2.604,0
		c-0.814-0.149-1.543-0.428-2.188-0.836c-0.643-0.406-1.114-0.824-1.415-1.254l-6.3-8.356l29.185-24.492h16.457v79.327H390.615z"/>
	<path fill="#FFFFFF" d="M403.278,494.317c0.685-4.671,2.002-8.743,3.953-12.218c1.947-3.471,4.372-6.36,7.264-8.678
		c2.893-2.313,6.204-4.039,9.932-5.175c3.729-1.136,7.735-1.704,12.021-1.704c4.628,0,8.743,0.654,12.342,1.961
		c3.6,1.311,6.643,3.075,9.128,5.304c2.485,2.229,4.372,4.813,5.657,7.746c1.285,2.938,1.929,6.032,1.929,9.289
		c0,2.957-0.301,5.563-0.9,7.813c-0.601,2.25-1.486,4.199-2.664,5.85c-1.182,1.65-2.639,3.044-4.372,4.179
		c-1.736,1.139-3.721,2.092-5.946,2.86c10.371,3.645,15.557,10.715,15.557,21.214c0,4.976-0.897,9.301-2.699,12.986
		c-1.801,3.685-4.211,6.749-7.23,9.191c-3.021,2.44-6.525,4.272-10.511,5.494c-3.985,1.225-8.146,1.832-12.474,1.832
		c-4.458,0-8.421-0.479-11.893-1.443c-3.471-0.964-6.557-2.464-9.257-4.5c-2.7-2.035-5.068-4.642-7.104-7.813
		c-2.036-3.171-3.804-6.939-5.304-11.313l8.872-3.604c2.313-0.896,4.457-1.135,6.428-0.707c1.973,0.432,3.386,1.414,4.243,2.957
		c1.929,3.561,3.975,6.143,6.14,7.746c2.164,1.607,4.703,2.411,7.618,2.411c2.229,0,4.167-0.375,5.817-1.125
		c1.646-0.749,3.021-1.714,4.114-2.895c1.093-1.18,1.917-2.519,2.475-4.02c0.557-1.499,0.836-3.021,0.836-4.563
		c0-2.017-0.14-3.824-0.418-5.435c-0.279-1.604-1.062-2.989-2.347-4.146c-1.286-1.156-3.228-2.048-5.817-2.668
		c-2.594-0.62-6.204-0.935-10.832-0.935V506.46c3.899,0,7.049-0.299,9.45-0.899c2.398-0.601,4.253-1.425,5.563-2.476
		c1.308-1.05,2.176-2.324,2.604-3.825c0.428-1.499,0.643-3.146,0.643-4.948c0-3.687-0.89-6.523-2.668-8.519
		c-1.776-1.994-4.487-2.989-8.132-2.989c-2.957,0-5.454,0.782-7.489,2.348c-2.034,1.564-3.438,3.505-4.21,5.816
		c-0.897,2.357-2.079,3.921-3.533,4.692c-1.459,0.771-3.536,0.941-6.236,0.515L403.278,494.317z"/>
</g>
<g>
	<g>
		<g>
			<path fill="#FF9300" d="M1005.585,207.629c0-101.112-81.969-183.078-183.08-183.078c-101.112,0-183.078,81.966-183.078,183.078
				c0,101.112,81.966,183.077,183.078,183.077c15.222,0,30.006-1.868,44.146-5.369l54.479,31.793v-55.235
				C971.921,329.357,1005.585,272.425,1005.585,207.629z"/>
		</g>
	</g>
	<g>
		<g>
			<circle fill="#EF8506" cx="789.744" cy="114.447" r="85.976"/>
		</g>
	</g>
	<g>
		<g>
			<g>
				<polygon fill="#FDFFFF" points="911.227,362.678 907.635,362.678 907.635,354.516 914.496,350.116 916.452,353.126 
					911.227,356.479 				"/>
			</g>
		</g>
		<g>
			<g>
				<rect x="907.635" y="371.644" fill="#FDFFFF" width="3.592" height="8.965"/>
			</g>
		</g>
		<g>
			<g>
				<polygon fill="#FDFFFF" points="911.227,399.878 902.323,394.684 904.133,391.584 907.635,393.626 907.635,389.573 
					911.227,389.573 				"/>
			</g>
		</g>
		<g>
			<g>
				<path fill="#FDFFFF" d="M890.057,387.526l-12.267-7.159l1.812-3.101l12.269,7.157L890.057,387.526z M824.067,380.793
					l-0.032-3.591c4.67-0.042,9.389-0.277,14.035-0.704l0.324,3.577C833.654,380.509,828.837,380.751,824.067,380.793z
					 M809.737,380.334c-4.756-0.35-9.548-0.898-14.248-1.641l0.559-3.545c4.604,0.722,9.296,1.264,13.95,1.604L809.737,380.334z
					 M852.616,378.184l-0.62-3.538c3.82-0.67,7.659-1.482,11.408-2.412l2.344-0.577l0.863,3.481l-2.344,0.583
					C860.438,376.67,856.52,377.496,852.616,378.184z M781.428,375.876c-4.626-1.127-9.264-2.467-13.781-3.98l1.142-3.404
					c4.425,1.482,8.965,2.792,13.493,3.898L781.428,375.876z M754.238,366.774c-4.373-1.883-8.727-3.975-12.938-6.22l1.688-3.167
					c4.123,2.197,8.384,4.247,12.665,6.088L754.238,366.774z M728.933,353.287c-3.997-2.578-7.942-5.357-11.728-8.263l2.188-2.848
					c3.702,2.845,7.566,5.57,11.486,8.093L728.933,353.287z M928.449,344.634l-2.192-2.839c3.692-2.852,7.31-5.891,10.751-9.031
					l2.42,2.654C935.914,338.623,932.221,341.725,928.449,344.634z M706.199,335.825c-3.524-3.202-6.959-6.589-10.212-10.07
					l2.621-2.451c3.188,3.41,6.553,6.729,10.004,9.863L706.199,335.825z M949.607,325.322l-2.629-2.442
					c3.178-3.421,6.242-7.014,9.118-10.678l2.824,2.215C955.988,318.16,952.854,321.83,949.607,325.322z M686.634,314.88
					c-2.958-3.737-5.792-7.64-8.426-11.602l2.989-1.987c2.578,3.878,5.355,7.704,8.253,11.365L686.634,314.88z M967.3,302.776
					l-3-1.975c2.565-3.897,4.997-7.947,7.229-12.042l3.15,1.716C972.401,294.656,969.92,298.796,967.3,302.776z M670.766,291.021
					c-2.3-4.173-4.449-8.49-6.396-12.831l3.278-1.466c1.899,4.25,4.012,8.476,6.268,12.562L670.766,291.021z M981.007,277.601
					l-3.284-1.447c1.887-4.271,3.606-8.67,5.125-13.081l3.396,1.169C984.689,268.747,982.929,273.24,981.007,277.601z
					 M659.059,264.876c-1.576-4.497-2.986-9.112-4.186-13.72l3.475-0.902c1.176,4.512,2.554,9.027,4.1,13.433L659.059,264.876z
					 M990.347,250.494l-3.479-0.886c1.146-4.518,2.119-9.145,2.887-13.751l3.541,0.59
					C992.51,241.151,991.518,245.877,990.347,250.494z M651.849,237.135c-0.805-4.682-1.429-9.468-1.846-14.22l3.574-0.314
					c0.411,4.653,1.02,9.34,1.811,13.925L651.849,237.135z M995.074,222.207l-3.581-0.296c0.389-4.644,0.588-9.371,0.594-14.048
					l3.591,0.005C995.672,212.644,995.467,217.468,995.074,222.207z M649.337,208.589l-0.005-0.961
					c0-4.452,0.173-8.946,0.511-13.368l3.582,0.275c-0.332,4.329-0.502,8.734-0.502,13.093l0.004,0.942L649.337,208.589z
					 M991.531,193.826c-0.376-4.655-0.953-9.344-1.71-13.936l3.54-0.587c0.773,4.691,1.362,9.481,1.749,14.233L991.531,193.826z
					 M655.076,180.592l-3.542-0.571c0.755-4.706,1.721-9.433,2.865-14.054l3.483,0.863
					C656.762,171.352,655.819,175.981,655.076,180.592z M986.953,166.141c-1.141-4.519-2.486-9.048-4.001-13.462l3.396-1.167
					c1.547,4.508,2.922,9.134,4.088,13.749L986.953,166.141z M661.831,153.351l-3.4-1.15c1.525-4.509,3.268-9.017,5.166-13.393
					l3.292,1.433C665.029,144.525,663.325,148.935,661.831,153.351z M977.844,139.606c-1.876-4.265-3.957-8.508-6.18-12.604
					l3.156-1.713c2.271,4.185,4.393,8.515,6.309,12.874L977.844,139.606z M673.023,127.599l-3.161-1.701
					c2.255-4.195,4.714-8.347,7.312-12.346l3.01,1.956C677.641,119.424,675.23,123.492,673.023,127.599z M964.461,114.949
					c-2.553-3.901-5.305-7.745-8.172-11.422l2.832-2.207c2.927,3.755,5.734,7.678,8.344,11.661L964.461,114.949z M688.317,104.052
					l-2.845-2.199c2.918-3.767,6.023-7.458,9.238-10.974l2.651,2.422C694.215,96.744,691.172,100.36,688.317,104.052z
					 M947.202,92.814c-3.159-3.428-6.501-6.772-9.938-9.931l2.435-2.642c3.504,3.227,6.918,6.638,10.145,10.14L947.202,92.814z
					 M707.261,83.332l-2.439-2.631c3.488-3.24,7.157-6.373,10.903-9.317l2.222,2.825C714.273,77.089,710.68,80.16,707.261,83.332z
					 M926.548,73.797c-3.682-2.867-7.528-5.617-11.431-8.17l1.966-3.004c3.986,2.607,7.911,5.415,11.672,8.343L926.548,73.797z
					 M729.335,65.993l-1.979-2.996c3.979-2.625,8.109-5.116,12.282-7.396l1.724,3.15C737.278,60.984,733.23,63.422,729.335,65.993z
					 M903.054,58.427c-4.104-2.227-8.354-4.306-12.624-6.179l1.443-3.286c4.357,1.911,8.695,4.034,12.891,6.308L903.054,58.427z
					 M753.947,52.527l-1.454-3.281c4.348-1.93,8.834-3.702,13.332-5.265l1.179,3.391C762.601,48.904,758.209,50.636,753.947,52.527z
					 M877.338,47.143c-4.414-1.514-8.941-2.856-13.461-3.994l0.873-3.482c4.618,1.164,9.243,2.534,13.753,4.079L877.338,47.143z
					 M780.45,43.325l-0.895-3.478c4.61-1.181,9.331-2.182,14.03-2.975l0.602,3.539C789.587,41.188,784.963,42.167,780.45,43.325z
					 M850.125,40.294c-4.592-0.754-9.279-1.328-13.938-1.702l0.281-3.578c4.762,0.382,9.551,0.966,14.237,1.739L850.125,40.294z
					 M808.117,38.651l-0.302-3.576c4.733-0.401,9.557-0.609,14.327-0.619l0.009,3.59C817.477,38.056,812.757,38.26,808.117,38.651z"
					/>
			</g>
		</g>
	</g>
	<g>
		<g>
			<path fill="#504887" d="M898.74,421.32c-0.73,0-1.46-0.191-2.112-0.572l-53.022-30.942c-14.2,3.378-28.822,5.089-43.486,5.089
				c-103.261,0-187.271-84.007-187.271-187.266c0-103.259,84.01-187.269,187.271-187.269c103.257,0,187.266,84.009,187.266,187.269
				c0,63.386-31.525,121.731-84.449,156.545v52.957c0,1.502-0.806,2.886-2.104,3.632C900.179,421.136,899.461,421.32,898.74,421.32z
				 M844.258,381.147c0.736,0,1.465,0.195,2.111,0.573l48.183,28.116v-47.94c0-1.423,0.729-2.753,1.933-3.527
				c51.673-33.102,82.521-89.453,82.521-150.74c0-98.64-80.251-178.891-178.889-178.891c-98.644,0-178.896,80.251-178.896,178.891
				c0,98.639,80.253,178.891,178.896,178.891c14.557,0,29.067-1.766,43.135-5.249C843.583,381.19,843.923,381.147,844.258,381.147z"
				/>
		</g>
	</g>
	<g>
		<g>
			<path fill="#FF9300" d="M984.254,35.631c0,15.696-12.726,28.422-28.426,28.422c-15.699,0-28.425-12.727-28.425-28.422
				c0-15.701,12.726-28.427,28.425-28.427C971.528,7.205,984.254,19.931,984.254,35.631z"/>
		</g>
	</g>
	<g>
		<g>
			<circle fill="#FF9300" cx="633.516" cy="381.842" r="39.942"/>
		</g>
	</g>
	<g>
		<g>
			<circle fill="#FF9300" cx="835.184" cy="418.624" r="14.213"/>
		</g>
	</g>
</g>
<g>
	<g>
		<path fill="#504887" d="M745.827,273.895c1.831,0,3.404,0.217,4.719,0.651c1.313,0.435,2.396,1.032,3.247,1.793
			c0.85,0.761,1.477,1.659,1.881,2.693c0.405,1.034,0.606,2.152,0.606,3.354c0,1.296-0.207,2.485-0.624,3.567
			c-0.416,1.082-1.053,2.01-1.909,2.783c-0.856,0.772-1.94,1.376-3.255,1.81c-1.313,0.434-2.869,0.65-4.665,0.65h-3.139v8.687
			h-6.029v-25.989L745.827,273.895L745.827,273.895z M745.827,286.649c1.57,0,2.7-0.375,3.39-1.124
			c0.688-0.749,1.035-1.795,1.035-3.139c0-0.595-0.089-1.135-0.268-1.624c-0.182-0.487-0.45-0.906-0.813-1.257
			c-0.363-0.351-0.82-0.621-1.374-0.812c-0.553-0.19-1.21-0.285-1.972-0.285h-3.141v8.241H745.827z"/>
	</g>
	<g>
		<path fill="#504887" d="M762.523,291.625c0.179,1.546,0.646,2.667,1.406,3.362c0.765,0.696,1.742,1.044,2.943,1.044
			c0.642,0,1.194-0.077,1.659-0.232c0.464-0.155,0.877-0.327,1.239-0.517c0.359-0.19,0.692-0.363,0.996-0.518
			c0.306-0.154,0.621-0.231,0.953-0.231c0.44,0,0.773,0.161,0.999,0.482l1.606,1.98c-0.571,0.654-1.188,1.186-1.846,1.596
			c-0.662,0.41-1.339,0.731-2.035,0.963c-0.695,0.231-1.394,0.393-2.085,0.481c-0.696,0.089-1.359,0.134-1.99,0.134
			c-1.296,0-2.512-0.211-3.647-0.633c-1.135-0.422-2.129-1.049-2.979-1.882c-0.85-0.832-1.521-1.866-2.016-3.104
			c-0.493-1.237-0.739-2.676-0.739-4.317c0-1.236,0.211-2.408,0.632-3.514c0.423-1.106,1.029-2.076,1.821-2.908
			c0.79-0.832,1.747-1.492,2.87-1.98s2.394-0.731,3.809-0.731c1.227,0,2.346,0.19,3.362,0.57c1.018,0.381,1.892,0.934,2.623,1.659
			c0.729,0.726,1.301,1.614,1.713,2.667c0.409,1.052,0.614,2.245,0.614,3.577c0,0.416-0.021,0.755-0.056,1.016
			c-0.037,0.263-0.103,0.47-0.194,0.625c-0.099,0.155-0.226,0.261-0.387,0.321c-0.157,0.06-0.363,0.089-0.613,0.089L762.523,291.625
			L762.523,291.625z M769.479,288.415c0-0.44-0.057-0.868-0.169-1.285c-0.11-0.416-0.297-0.788-0.553-1.115
			c-0.256-0.327-0.592-0.591-1.009-0.794c-0.416-0.202-0.921-0.303-1.516-0.303c-1.047,0-1.866,0.3-2.461,0.901
			c-0.598,0.601-0.987,1.466-1.181,2.596H769.479z"/>
	</g>
	<g>
		<path fill="#504887" d="M782.376,284.241c0.571-1,1.227-1.784,1.971-2.355c0.742-0.571,1.6-0.854,2.563-0.854
			c0.832,0,1.51,0.197,2.033,0.589l-0.357,4.067c-0.06,0.261-0.157,0.439-0.294,0.535c-0.136,0.095-0.323,0.145-0.563,0.145
			c-0.096,0-0.221-0.005-0.375-0.02c-0.152-0.012-0.313-0.027-0.479-0.044c-0.167-0.018-0.336-0.036-0.51-0.054
			c-0.171-0.017-0.328-0.026-0.475-0.026c-0.809,0-1.454,0.214-1.936,0.642c-0.482,0.428-0.89,1.021-1.224,1.784v11.237h-5.528
			V281.39h3.282c0.271,0,0.502,0.024,0.688,0.071c0.185,0.047,0.338,0.122,0.462,0.223c0.125,0.101,0.22,0.235,0.285,0.401
			c0.065,0.167,0.123,0.369,0.17,0.606L782.376,284.241z"/>
	</g>
	<g>
		<path fill="#504887" d="M798.321,299.884v-18.497h3.426c0.688,0,1.142,0.313,1.354,0.927l0.306,1
			c0.309-0.321,0.631-0.616,0.963-0.883c0.333-0.268,0.691-0.5,1.08-0.696c0.387-0.196,0.803-0.351,1.248-0.463
			c0.443-0.113,0.937-0.169,1.473-0.169c1.117,0,2.042,0.289,2.773,0.865c0.729,0.576,1.286,1.347,1.667,2.31
			c0.31-0.571,0.687-1.058,1.134-1.463c0.443-0.404,0.926-0.731,1.441-0.981c0.521-0.25,1.063-0.434,1.644-0.553
			c0.577-0.118,1.147-0.178,1.721-0.178c1.063,0,1.998,0.157,2.818,0.472c0.82,0.313,1.508,0.771,2.062,1.374
			c0.555,0.601,0.975,1.338,1.259,2.212c0.283,0.874,0.43,1.864,0.43,2.97v11.754h-5.53v-11.754c0-1.915-0.82-2.872-2.462-2.872
			c-0.749,0-1.37,0.247-1.863,0.74c-0.492,0.494-0.736,1.204-0.736,2.132v11.754h-5.531v-11.754c0-1.059-0.208-1.801-0.623-2.23
			c-0.418-0.428-1.029-0.642-1.838-0.642c-0.5,0-0.976,0.113-1.419,0.339c-0.445,0.226-0.865,0.529-1.257,0.909v13.378
			L798.321,299.884L798.321,299.884z"/>
	</g>
	<g>
		<path fill="#504887" d="M837.207,281.102c1.403,0,2.682,0.22,3.836,0.66c1.153,0.44,2.143,1.07,2.97,1.891
			c0.825,0.821,1.468,1.816,1.927,2.988c0.457,1.171,0.688,2.489,0.688,3.951c0,1.476-0.229,2.804-0.688,3.987
			c-0.459,1.184-1.102,2.188-1.927,3.014c-0.827,0.827-1.813,1.463-2.97,1.909c-1.154,0.446-2.433,0.669-3.836,0.669
			c-1.414,0-2.703-0.223-3.862-0.669c-1.159-0.446-2.157-1.082-2.995-1.909c-0.839-0.826-1.484-1.831-1.942-3.014
			c-0.457-1.183-0.688-2.512-0.688-3.987c0-1.462,0.229-2.779,0.688-3.951c0.458-1.171,1.104-2.167,1.942-2.988
			c0.838-0.82,1.836-1.45,2.995-1.891C834.504,281.321,835.793,281.102,837.207,281.102z M837.207,296.067
			c1.271,0,2.209-0.449,2.81-1.347c0.603-0.896,0.9-2.262,0.9-4.093c0-1.832-0.301-3.193-0.9-4.085
			c-0.601-0.892-1.536-1.337-2.81-1.337c-1.309,0-2.266,0.445-2.872,1.337c-0.604,0.892-0.909,2.254-0.909,4.085
			s0.305,3.195,0.909,4.093C834.942,295.618,835.898,296.067,837.207,296.067z"/>
	</g>
	<g>
		<path fill="#504887" d="M854.509,283.385c0.356-0.333,0.729-0.643,1.105-0.928c0.381-0.285,0.789-0.526,1.222-0.723
			c0.434-0.196,0.903-0.351,1.408-0.463c0.507-0.113,1.056-0.169,1.652-0.169c1.01,0,1.902,0.175,2.684,0.526
			c0.777,0.351,1.436,0.838,1.971,1.463c0.534,0.624,0.939,1.367,1.213,2.229c0.273,0.862,0.41,1.799,0.41,2.81v11.754h-5.529
			V288.13c0-0.903-0.207-1.608-0.623-2.114c-0.418-0.505-1.028-0.758-1.838-0.758c-0.604,0-1.175,0.128-1.703,0.383
			c-0.526,0.256-1.045,0.604-1.545,1.044v13.199h-5.525v-18.497h3.425c0.688,0,1.141,0.313,1.354,0.927L854.509,283.385z"/>
	</g>
	<g>
		<path fill="#504887" d="M876.109,300.169c-0.881,0-1.656-0.127-2.327-0.384c-0.673-0.255-1.237-0.618-1.695-1.088
			c-0.458-0.469-0.806-1.037-1.044-1.703c-0.237-0.667-0.355-1.41-0.355-2.23v-9.56h-1.567c-0.285,0-0.529-0.092-0.731-0.276
			c-0.199-0.185-0.304-0.455-0.304-0.812v-2.159l2.942-0.571l1.09-4.513c0.142-0.57,0.546-0.856,1.213-0.856h2.89v5.405h4.584v3.781
			h-4.584v9.187c0,0.428,0.104,0.781,0.313,1.061c0.208,0.28,0.509,0.419,0.898,0.419c0.202,0,0.371-0.02,0.511-0.062
			c0.137-0.042,0.256-0.09,0.354-0.143c0.102-0.054,0.196-0.102,0.285-0.144c0.09-0.041,0.191-0.063,0.313-0.063
			c0.166,0,0.302,0.04,0.4,0.117c0.104,0.077,0.205,0.199,0.313,0.365l1.678,2.623c-0.714,0.535-1.521,0.936-2.409,1.204
			C877.98,300.036,877.061,300.169,876.109,300.169z"/>
	</g>
	<g>
		<path fill="#504887" d="M888.72,283.01c0.667-0.571,1.392-1.032,2.168-1.382c0.778-0.351,1.709-0.526,2.792-0.526
			c1.01,0,1.905,0.175,2.687,0.526c0.776,0.351,1.437,0.838,1.971,1.463c0.535,0.624,0.939,1.367,1.213,2.229
			c0.273,0.862,0.41,1.799,0.41,2.81v11.754h-5.529V288.13c0-0.903-0.208-1.608-0.623-2.114c-0.417-0.505-1.027-0.758-1.838-0.758
			c-0.604,0-1.175,0.128-1.703,0.383c-0.526,0.256-1.045,0.604-1.544,1.044v13.199h-5.526v-26.702h5.526L888.72,283.01
			L888.72,283.01z"/>
	</g>
</g>
<g>
	<g>
		<path fill="#FFFFFF" d="M716.072,212.758c0-1.237,0.395-2.313,1.184-3.226c0.789-0.912,1.976-1.369,3.552-1.369h3.898v-10.026
			c0-2.938,0.448-5.729,1.347-8.378c0.896-2.646,2.269-4.974,4.107-6.986c1.841-2.011,4.146-3.613,6.916-4.804
			c2.77-1.191,6.042-1.787,9.814-1.787c2.51,0,4.773,0.317,6.803,0.952c2.024,0.634,3.837,1.516,5.432,2.646
			c1.593,1.13,2.993,2.46,4.2,3.992s2.259,3.179,3.156,4.943l-5.759,3.621c-1.299,0.681-2.561,0.982-3.779,0.905
			c-1.226-0.077-2.348-0.657-3.365-1.741c-1.177-1.207-2.244-2.104-3.203-2.692c-0.96-0.587-2.12-0.882-3.479-0.882
			c-2.51,0-4.371,0.875-5.596,2.623c-1.224,1.749-1.834,4.263-1.834,7.542v10.073h17.642v5.477c0,0.464-0.104,0.905-0.305,1.323
			c-0.198,0.417-0.479,0.797-0.836,1.137c-0.354,0.341-0.771,0.611-1.253,0.812c-0.479,0.202-1.014,0.302-1.602,0.302h-13.646v7.241
			c0,1.856-0.348,3.536-1.044,5.036c-0.693,1.501-1.633,2.901-2.809,4.201c1.393-0.309,2.785-0.549,4.178-0.719
			c1.396-0.17,2.8-0.255,4.224-0.255h23.305v5.895c0,0.681-0.147,1.377-0.441,2.089s-0.704,1.354-1.229,1.926
			c-0.526,0.573-1.169,1.037-1.93,1.393c-0.759,0.356-1.602,0.534-2.526,0.534H716.91v-8.634c1.021-0.186,2.003-0.479,2.947-0.882
			c0.94-0.402,1.771-0.912,2.48-1.532c0.712-0.619,1.284-1.361,1.719-2.228c0.435-0.866,0.648-1.872,0.648-3.017v-11.047h-8.634
			L716.072,212.758L716.072,212.758z"/>
	</g>
	<g>
		<path fill="#FFFFFF" d="M819.86,176.924v6.034c0,1.795-0.201,3.242-0.604,4.34c-0.402,1.099-0.789,2.02-1.16,2.762l-23.484,49.76
			c-0.649,1.299-1.571,2.414-2.765,3.342c-1.188,0.928-2.775,1.393-4.758,1.393H776.6l24.14-48.413
			c0.712-1.3,1.431-2.483,2.155-3.551c0.729-1.067,1.539-2.081,2.438-3.04h-29.754c-0.437,0-0.844-0.085-1.229-0.255
			c-0.388-0.17-0.728-0.402-1.021-0.696c-0.295-0.294-0.534-0.634-0.72-1.021c-0.188-0.387-0.278-0.781-0.278-1.184v-9.469h47.529
			V176.924L819.86,176.924z"/>
	</g>
	<g>
		<path fill="#FFFFFF" d="M871.289,234.156v10.396h-38.526v-10.396h12.997V200.04c0-0.866,0.019-1.741,0.047-2.623
			c0.03-0.882,0.076-1.771,0.142-2.669l-7.705,6.405c-0.683,0.527-1.354,0.844-2.021,0.952c-0.666,0.109-1.293,0.109-1.881,0
			c-0.588-0.108-1.112-0.309-1.578-0.604c-0.464-0.293-0.805-0.595-1.021-0.905l-4.549-6.034l21.07-17.685h11.885v57.279H871.289z"
			/>
	</g>
	<g>
		<path fill="#FFFFFF" d="M928.335,210.715c0,5.911-0.635,11.032-1.903,15.364c-1.269,4.333-3.021,7.922-5.269,10.769
			c-2.243,2.847-4.904,4.966-7.983,6.359c-3.078,1.393-6.412,2.089-10.003,2.089c-3.59,0-6.909-0.696-9.956-2.089
			c-3.049-1.393-5.687-3.512-7.914-6.359c-2.229-2.847-3.969-6.436-5.223-10.769c-1.253-4.332-1.88-9.453-1.88-15.364
			c0-5.91,0.627-11.031,1.88-15.364c1.254-4.332,2.994-7.921,5.223-10.769c2.229-2.847,4.865-4.958,7.914-6.336
			c3.047-1.376,6.366-2.065,9.956-2.065c3.591,0,6.925,0.689,10.003,2.065c3.079,1.377,5.74,3.489,7.983,6.336
			c2.244,2.848,4,6.437,5.269,10.769C927.7,199.684,928.335,204.805,928.335,210.715z M913.48,210.715
			c0-4.672-0.293-8.501-0.884-11.488c-0.588-2.986-1.366-5.33-2.344-7.032c-0.976-1.701-2.082-2.87-3.317-3.504
			c-1.237-0.634-2.49-0.952-3.762-0.952c-1.27,0-2.515,0.318-3.734,0.952c-1.225,0.635-2.308,1.803-3.248,3.504
			c-0.944,1.703-1.702,4.046-2.274,7.032c-0.573,2.987-0.858,6.816-0.858,11.488c0,4.704,0.285,8.541,0.858,11.512
			c0.572,2.971,1.33,5.315,2.274,7.032c0.94,1.717,2.023,2.894,3.248,3.528c1.223,0.634,2.468,0.951,3.734,0.951
			c1.271,0,2.521-0.317,3.762-0.951c1.235-0.634,2.345-1.811,3.317-3.528c0.978-1.717,1.756-4.062,2.344-7.032
			C913.188,219.257,913.48,215.419,913.48,210.715z"/>
	</g>
</g>
<g>
	<g>
		<path fill="#FF9300" d="M958.865,633.132c0-75.727-61.393-137.114-137.116-137.114s-137.114,61.391-137.114,137.114
			c0,75.729,61.391,137.113,137.114,137.113c11.4,0,22.473-1.398,33.062-4.021l40.807,23.813v-41.368
			C933.652,724.299,958.865,681.66,958.865,633.132z"/>
	</g>
	<g>
		<circle fill="#EF8506" cx="797.213" cy="563.344" r="64.391"/>
	</g>
	<g>
		<g>
			<polygon fill="#FDFFFF" points="888.195,749.254 885.507,749.254 885.507,743.141 890.645,739.846 892.109,742.101 
				888.195,744.611 			"/>
		</g>
		<g>
			<rect x="885.507" y="755.969" fill="#FDFFFF" width="2.688" height="6.714"/>
		</g>
		<g>
			<polygon fill="#FDFFFF" points="888.195,777.114 881.528,773.225 882.884,770.902 885.507,772.433 885.507,769.396 
				888.195,769.396 			"/>
		</g>
		<g>
			<path fill="#FDFFFF" d="M872.341,767.863l-9.187-5.361l1.354-2.322l9.188,5.36L872.341,767.863z M822.92,762.821l-0.023-2.689
				c3.496-0.031,7.03-0.207,10.513-0.526l0.244,2.681C830.1,762.607,826.492,762.789,822.92,762.821z M812.188,762.477
				c-3.563-0.262-7.147-0.672-10.671-1.228l0.419-2.655c3.445,0.54,6.964,0.946,10.447,1.201L812.188,762.477z M844.301,760.867
				l-0.465-2.65c2.861-0.502,5.736-1.106,8.545-1.806l1.755-0.436l0.646,2.607l-1.754,0.437
				C850.157,759.733,847.224,760.352,844.301,760.867z M790.984,759.138c-3.467-0.844-6.938-1.847-10.32-2.979l0.853-2.55
				c3.313,1.106,6.717,2.092,10.105,2.92L790.984,759.138z M770.621,752.321c-3.274-1.409-6.533-2.979-9.688-4.658l1.268-2.372
				c3.088,1.646,6.275,3.181,9.482,4.56L770.621,752.321z M751.67,742.221c-2.994-1.931-5.951-4.013-8.784-6.188l1.643-2.133
				c2.771,2.13,5.667,4.172,8.603,6.062L751.67,742.221z M901.095,735.74l-1.642-2.127c2.766-2.138,5.475-4.412,8.052-6.767
				l1.813,1.988C906.688,731.238,903.92,733.561,901.095,735.74z M734.644,729.143c-2.64-2.396-5.212-4.935-7.646-7.542l1.963-1.836
				c2.388,2.557,4.908,5.04,7.492,7.39L734.644,729.143z M916.942,721.276l-1.972-1.828c2.381-2.563,4.678-5.253,6.83-7.997
				l2.115,1.659C921.72,715.912,919.373,718.661,916.942,721.276z M719.99,713.456c-2.216-2.799-4.338-5.722-6.313-8.689
				l2.238-1.485c1.932,2.901,4.014,5.771,6.182,8.512L719.99,713.456z M930.191,704.392l-2.246-1.479
				c1.921-2.919,3.742-5.952,5.41-9.019l2.359,1.281C934.013,698.31,932.154,701.41,930.191,704.392z M708.105,695.587
				c-1.726-3.125-3.334-6.358-4.796-9.609l2.456-1.099c1.428,3.184,3.008,6.348,4.693,9.408L708.105,695.587z M940.458,685.536
				l-2.46-1.084c1.41-3.197,2.701-6.493,3.838-9.797l2.543,0.875C943.217,678.905,941.896,682.27,940.458,685.536z M699.338,676.006
				c-1.183-3.367-2.238-6.824-3.135-10.275l2.603-0.676c0.878,3.38,1.91,6.765,3.068,10.063L699.338,676.006z M947.452,665.234
				l-2.606-0.663c0.86-3.384,1.587-6.852,2.162-10.3l2.652,0.44C949.073,658.237,948.33,661.777,947.452,665.234z M693.938,655.23
				c-0.604-3.51-1.067-7.094-1.383-10.65l2.681-0.235c0.307,3.485,0.763,6.994,1.354,10.432L693.938,655.23z M950.993,644.05
				l-2.683-0.223c0.291-3.479,0.438-7.021,0.442-10.521l2.689,0.005C951.441,636.888,951.287,640.501,950.993,644.05z
				 M692.057,633.851l-0.003-0.721c0-3.333,0.13-6.699,0.382-10.011l2.686,0.206c-0.249,3.242-0.375,6.541-0.375,9.805l0.002,0.707
				L692.057,633.851z M948.34,622.793c-0.281-3.485-0.714-6.998-1.279-10.437l2.649-0.439c0.582,3.513,1.022,7.1,1.312,10.659
				L948.34,622.793z M696.355,612.883l-2.653-0.429c0.563-3.524,1.289-7.063,2.146-10.525l2.61,0.646
				C697.617,605.962,696.912,609.429,696.355,612.883z M944.911,602.06c-0.854-3.384-1.862-6.774-2.997-10.083l2.544-0.873
				c1.157,3.379,2.188,6.844,3.062,10.3L944.911,602.06z M701.414,592.48l-2.547-0.861c1.143-3.377,2.445-6.753,3.869-10.03
				l2.466,1.073C703.81,585.871,702.533,589.173,701.414,592.48z M938.089,582.188c-1.405-3.192-2.964-6.37-4.629-9.438l2.364-1.283
				c1.702,3.135,3.29,6.378,4.725,9.645L938.089,582.188z M709.797,573.194l-2.367-1.274c1.688-3.142,3.53-6.251,5.479-9.246
				l2.254,1.466C713.255,567.071,711.45,570.118,709.797,573.194z M928.064,563.72c-1.91-2.922-3.975-5.8-6.119-8.554l2.121-1.652
				c2.189,2.813,4.295,5.749,6.248,8.732L928.064,563.72z M721.251,555.559l-2.128-1.646c2.185-2.82,4.511-5.586,6.918-8.219
				l1.986,1.813C725.668,550.086,723.389,552.794,721.251,555.559z M915.14,547.143c-2.366-2.564-4.868-5.069-7.438-7.438
				l1.818-1.979c2.625,2.416,5.185,4.974,7.602,7.598L915.14,547.143z M735.438,540.041l-1.826-1.971
				c2.612-2.43,5.358-4.772,8.168-6.979l1.662,2.116C740.69,535.365,737.999,537.665,735.438,540.041z M899.671,532.899
				c-2.757-2.146-5.638-4.206-8.561-6.119l1.472-2.249c2.986,1.952,5.926,4.055,8.742,6.248L899.671,532.899z M751.971,527.055
				l-1.479-2.242c2.979-1.967,6.076-3.829,9.2-5.537l1.288,2.355C757.92,523.304,754.889,525.13,751.971,527.055z M882.075,521.389
				c-3.076-1.669-6.257-3.226-9.454-4.629l1.081-2.461c3.264,1.432,6.512,3.021,9.653,4.725L882.075,521.389z M770.404,516.97
				l-1.09-2.457c3.257-1.442,6.613-2.771,9.981-3.94l0.884,2.54C776.885,514.256,773.596,515.554,770.404,516.97z M862.814,512.938
				c-3.308-1.134-6.695-2.14-10.08-2.988l0.651-2.608c3.458,0.872,6.925,1.897,10.302,3.058L862.814,512.938z M790.253,510.078
				l-0.668-2.605c3.453-0.883,6.988-1.634,10.508-2.228l0.448,2.647C797.096,508.477,793.633,509.21,790.253,510.078z
				 M842.436,507.809c-3.438-0.563-6.947-0.992-10.438-1.272l0.213-2.683c3.563,0.286,7.151,0.727,10.663,1.306L842.436,507.809z
				 M810.974,506.578l-0.226-2.679c3.547-0.303,7.157-0.457,10.732-0.467l0.004,2.688
				C817.983,506.131,814.448,506.284,810.974,506.578z"/>
		</g>
	</g>
	<g>
		<path fill="#504887" d="M878.845,793.173c-0.547,0-1.093-0.144-1.582-0.428l-39.71-23.175
			c-10.638,2.527-21.589,3.813-32.568,3.813c-77.337,0-140.253-62.917-140.253-140.251c0-77.335,62.916-140.253,140.253-140.253
			c77.33,0,140.251,62.918,140.251,140.253c0,47.472-23.613,91.169-63.25,117.242v39.662c0,1.124-0.604,2.16-1.575,2.72
			C879.922,793.035,879.385,793.173,878.845,793.173z M838.041,763.086c0.551,0,1.098,0.146,1.581,0.43l36.086,21.061V748.67
			c0-1.064,0.545-2.062,1.445-2.642c38.698-24.791,61.805-66.995,61.805-112.896c0-73.876-60.103-133.979-133.977-133.979
			c-73.876,0-133.98,60.103-133.98,133.979c0,73.874,60.104,133.979,133.98,133.979c10.899,0,21.771-1.321,32.306-3.933
			C837.535,763.118,837.79,763.086,838.041,763.086z"/>
	</g>
	<g>
		<path fill="#FF9300" d="M939.408,497.313c0,11.757-9.53,21.285-21.289,21.285c-11.758,0-21.288-9.528-21.288-21.285
			c0-11.76,9.53-21.288,21.288-21.288C929.878,476.021,939.408,485.553,939.408,497.313z"/>
	</g>
	<g>
		<circle fill="#FF9300" cx="680.208" cy="763.606" r="29.914"/>
	</g>
	<g>
		<circle fill="#FF9300" cx="831.245" cy="791.153" r="10.645"/>
	</g>
</g>
<g>
	<path fill="#504887" d="M771.553,686.685h-4.271c-0.791,0-1.359-0.298-1.704-0.894l-3.38-5.908
		c-0.158-0.251-0.334-0.436-0.53-0.552c-0.195-0.117-0.477-0.175-0.838-0.175h-1.201v7.525h-4.722v-20.35h6.621
		c1.471,0,2.726,0.151,3.765,0.454c1.037,0.303,1.885,0.724,2.541,1.264c0.657,0.54,1.134,1.181,1.432,1.914
		c0.299,0.734,0.447,1.535,0.447,2.401c0,0.661-0.088,1.284-0.265,1.872c-0.181,0.587-0.438,1.129-0.783,1.627
		c-0.344,0.498-0.771,0.939-1.277,1.334c-0.508,0.391-1.092,0.712-1.753,0.963c0.311,0.159,0.598,0.354,0.865,0.595
		c0.271,0.236,0.513,0.521,0.727,0.845L771.553,686.685z M761.525,675.902c0.643,0,1.188-0.082,1.641-0.245
		c0.451-0.162,0.822-0.392,1.11-0.681c0.288-0.285,0.498-0.625,0.629-1.012s0.192-0.804,0.192-1.25c0-0.895-0.289-1.593-0.873-2.096
		c-0.58-0.502-1.479-0.753-2.699-0.753h-1.899v6.033L761.525,675.902L761.525,675.902z"/>
	<path fill="#504887" d="M775.366,680.218c0.141,1.21,0.508,2.088,1.104,2.633c0.599,0.544,1.364,0.816,2.308,0.816
		c0.503,0,0.937-0.06,1.299-0.181c0.363-0.121,0.687-0.26,0.97-0.405c0.285-0.149,0.546-0.284,0.783-0.405s0.486-0.182,0.747-0.182
		c0.345,0,0.604,0.125,0.782,0.377l1.257,1.55c-0.446,0.513-0.932,0.929-1.445,1.25c-0.518,0.322-1.047,0.574-1.593,0.755
		c-0.544,0.182-1.089,0.311-1.633,0.377c-0.546,0.069-1.064,0.104-1.561,0.104c-1.016,0-1.968-0.164-2.854-0.495
		c-0.893-0.331-1.667-0.821-2.333-1.477c-0.666-0.648-1.192-1.462-1.578-2.43c-0.387-0.969-0.579-2.096-0.579-3.38
		c0-0.97,0.164-1.887,0.495-2.752c0.331-0.866,0.806-1.624,1.425-2.276c0.62-0.648,1.369-1.169,2.249-1.552
		c0.879-0.381,1.874-0.572,2.982-0.572c0.958,0,1.836,0.149,2.632,0.447c0.797,0.299,1.479,0.729,2.053,1.3
		c0.574,0.567,1.021,1.267,1.342,2.087c0.32,0.824,0.482,1.761,0.482,2.804c0,0.322-0.019,0.592-0.043,0.797
		c-0.028,0.203-0.08,0.366-0.154,0.485c-0.074,0.121-0.174,0.205-0.3,0.251c-0.126,0.048-0.286,0.07-0.481,0.07L775.366,680.218
		L775.366,680.218z M780.813,677.704c0-0.345-0.045-0.68-0.133-1.006c-0.089-0.326-0.23-0.616-0.433-0.873
		c-0.201-0.256-0.463-0.464-0.789-0.622c-0.326-0.157-0.722-0.237-1.188-0.237c-0.816,0-1.461,0.236-1.928,0.706
		c-0.465,0.47-0.771,1.147-0.922,2.032H780.813z"/>
	<path fill="#504887" d="M799.976,665.776v20.905h-2.682c-0.541,0-0.895-0.239-1.063-0.727l-0.334-1.104
		c-0.289,0.31-0.595,0.589-0.908,0.841c-0.317,0.251-0.659,0.467-1.026,0.646c-0.369,0.184-0.765,0.32-1.188,0.418
		c-0.427,0.101-0.886,0.146-1.376,0.146c-0.755,0-1.453-0.167-2.098-0.503c-0.644-0.334-1.193-0.818-1.661-1.452
		c-0.467-0.632-0.83-1.408-1.098-2.325c-0.265-0.917-0.396-1.963-0.396-3.136c0-1.08,0.146-2.083,0.443-3.013
		c0.299-0.926,0.72-1.727,1.268-2.399c0.545-0.676,1.197-1.203,1.962-1.585c0.764-0.382,1.604-0.572,2.524-0.572
		c0.756,0,1.391,0.106,1.899,0.321c0.513,0.213,0.978,0.503,1.396,0.862v-7.331h4.331v0.006L799.976,665.776L799.976,665.776z
		 M795.646,676.083c-0.327-0.362-0.683-0.616-1.063-0.761c-0.382-0.146-0.782-0.217-1.201-0.217c-0.397,0-0.768,0.076-1.104,0.235
		c-0.336,0.158-0.626,0.411-0.873,0.765c-0.246,0.349-0.44,0.802-0.579,1.357c-0.141,0.563-0.21,1.234-0.21,2.025
		c0,0.764,0.056,1.406,0.168,1.927c0.111,0.522,0.268,0.944,0.468,1.265c0.2,0.321,0.439,0.555,0.719,0.691
		c0.279,0.141,0.595,0.21,0.938,0.21c0.313,0,0.603-0.03,0.856-0.092c0.258-0.063,0.49-0.146,0.704-0.258
		c0.218-0.112,0.417-0.255,0.607-0.429c0.188-0.172,0.38-0.367,0.563-0.595v-6.129h0.005L795.646,676.083L795.646,676.083z"/>
	<path fill="#504887" d="M815.896,672.2v14.481h-2.684c-0.541,0-0.895-0.239-1.063-0.727l-0.251-0.839
		c-0.279,0.271-0.567,0.516-0.865,0.73c-0.298,0.223-0.618,0.405-0.957,0.563c-0.341,0.151-0.708,0.271-1.104,0.361
		c-0.396,0.09-0.823,0.134-1.292,0.134c-0.792,0-1.489-0.141-2.102-0.411c-0.61-0.274-1.124-0.659-1.544-1.152
		c-0.419-0.494-0.735-1.076-0.95-1.746c-0.213-0.671-0.32-1.402-0.32-2.207V672.2h4.329v9.188c0,0.721,0.162,1.271,0.489,1.662
		c0.326,0.394,0.805,0.587,1.438,0.587c0.475,0,0.919-0.1,1.334-0.3c0.412-0.2,0.813-0.473,1.208-0.815V672.2H815.896z"/>
	<path fill="#504887" d="M829.472,675.637c-0.129,0.158-0.255,0.284-0.377,0.377c-0.12,0.096-0.293,0.144-0.517,0.144
		c-0.213,0-0.407-0.052-0.579-0.154c-0.172-0.102-0.365-0.217-0.58-0.343c-0.214-0.126-0.465-0.239-0.753-0.342
		c-0.289-0.104-0.648-0.154-1.077-0.154c-0.529,0-0.988,0.098-1.375,0.293c-0.386,0.197-0.704,0.477-0.956,0.839
		c-0.251,0.362-0.438,0.81-0.559,1.334c-0.121,0.526-0.186,1.119-0.186,1.781c0,1.387,0.271,2.453,0.807,3.198
		c0.533,0.744,1.271,1.113,2.214,1.113c0.503,0,0.898-0.062,1.191-0.188s0.542-0.268,0.747-0.419
		c0.205-0.153,0.396-0.297,0.566-0.426c0.172-0.134,0.388-0.196,0.646-0.196c0.347,0,0.604,0.125,0.78,0.377l1.258,1.55
		c-0.444,0.513-0.917,0.929-1.409,1.25c-0.492,0.322-0.997,0.574-1.517,0.755c-0.517,0.185-1.036,0.311-1.558,0.377
		c-0.522,0.069-1.029,0.104-1.522,0.104c-0.885,0-1.729-0.167-2.534-0.503c-0.807-0.334-1.514-0.821-2.122-1.459
		c-0.608-0.639-1.095-1.423-1.451-2.354c-0.358-0.931-0.537-1.991-0.537-3.184c0-1.044,0.153-2.021,0.468-2.928
		c0.313-0.906,0.771-1.693,1.383-2.359c0.609-0.666,1.363-1.189,2.263-1.572c0.897-0.381,1.938-0.569,3.122-0.569
		c1.138,0,2.134,0.182,2.987,0.546c0.857,0.359,1.63,0.894,2.319,1.592L829.472,675.637z"/>
	<path fill="#504887" d="M848.077,686.685h-4.33V675.19h-6.062v7.19c0,0.334,0.079,0.611,0.241,0.831
		c0.164,0.219,0.398,0.327,0.706,0.327c0.158,0,0.291-0.016,0.397-0.049c0.104-0.031,0.198-0.069,0.276-0.111
		c0.08-0.041,0.154-0.079,0.227-0.112c0.066-0.028,0.148-0.049,0.244-0.049c0.131,0,0.232,0.031,0.313,0.092
		c0.079,0.063,0.161,0.156,0.244,0.286l1.313,2.056c-0.561,0.42-1.188,0.73-1.888,0.94c-0.696,0.209-1.419,0.313-2.164,0.313
		c-0.688,0-1.297-0.103-1.821-0.301c-0.525-0.199-0.97-0.482-1.326-0.854c-0.357-0.367-0.633-0.813-0.816-1.334
		c-0.187-0.521-0.277-1.104-0.277-1.745v-7.485h-1.229c-0.226,0-0.414-0.07-0.572-0.217c-0.159-0.145-0.235-0.354-0.235-0.636
		v-1.688l2.305-0.464l0.852-3.519c0.112-0.448,0.43-0.672,0.951-0.672h2.262v4.229h10.395L848.077,686.685L848.077,686.685z
		 M848.678,668.22c0,0.349-0.066,0.671-0.209,0.979c-0.141,0.308-0.331,0.575-0.572,0.804c-0.24,0.229-0.522,0.407-0.846,0.538
		c-0.32,0.131-0.663,0.195-1.025,0.195c-0.354,0-0.687-0.064-0.989-0.195c-0.31-0.131-0.58-0.311-0.818-0.538
		c-0.233-0.229-0.424-0.496-0.558-0.804c-0.139-0.31-0.203-0.632-0.203-0.979c0-0.345,0.064-0.673,0.203-0.98
		c0.134-0.313,0.318-0.583,0.558-0.813c0.238-0.229,0.511-0.41,0.818-0.545c0.306-0.136,0.637-0.202,0.989-0.202
		c0.362,0,0.705,0.066,1.025,0.202c0.32,0.135,0.604,0.316,0.846,0.545c0.241,0.229,0.435,0.498,0.572,0.813
		C848.607,667.547,848.678,667.875,848.678,668.22z"/>
	<path fill="#504887" d="M857.783,671.977c1.099,0,2.1,0.177,3.003,0.521c0.903,0.345,1.679,0.838,2.325,1.479
		c0.646,0.646,1.147,1.426,1.509,2.342c0.356,0.918,0.537,1.945,0.537,3.095c0,1.152-0.183,2.191-0.537,3.121
		c-0.358,0.927-0.861,1.714-1.509,2.357c-0.646,0.647-1.422,1.146-2.325,1.494c-0.903,0.353-1.904,0.523-3.003,0.523
		c-1.108,0-2.116-0.175-3.023-0.523c-0.908-0.349-1.688-0.847-2.347-1.494c-0.657-0.646-1.163-1.434-1.522-2.357
		c-0.356-0.928-0.537-1.969-0.537-3.121c0-1.146,0.181-2.177,0.537-3.095c0.359-0.916,0.865-1.696,1.522-2.342
		c0.656-0.643,1.438-1.136,2.347-1.479C855.667,672.15,856.675,671.977,857.783,671.977z M857.783,683.695
		c0.996,0,1.729-0.354,2.2-1.058c0.47-0.702,0.704-1.771,0.704-3.206c0-1.433-0.234-2.5-0.704-3.195
		c-0.473-0.697-1.204-1.047-2.2-1.047c-1.023,0-1.773,0.35-2.248,1.047c-0.475,0.695-0.713,1.766-0.713,3.195
		c0,1.438,0.238,2.506,0.713,3.206C856.01,683.345,856.76,683.695,857.783,683.695z"/>
	<path fill="#504887" d="M871.331,673.765c0.28-0.261,0.567-0.503,0.866-0.726c0.297-0.224,0.617-0.413,0.957-0.565
		c0.339-0.151,0.707-0.271,1.103-0.361c0.396-0.089,0.827-0.136,1.292-0.136c0.792,0,1.492,0.141,2.104,0.413
		c0.605,0.274,1.124,0.656,1.542,1.146c0.419,0.489,0.732,1.07,0.949,1.746c0.215,0.676,0.319,1.408,0.319,2.2v9.202h-4.33v-9.202
		c0-0.708-0.163-1.263-0.485-1.655c-0.327-0.396-0.809-0.594-1.439-0.594c-0.475,0-0.919,0.1-1.334,0.3
		c-0.413,0.201-0.816,0.474-1.207,0.815v10.336h-4.331V672.2h2.683c0.541,0,0.896,0.243,1.063,0.727L871.331,673.765z"/>
</g>
<g>
	<path fill="#FFFFFF" d="M742.038,620.973c0-0.927,0.296-1.729,0.887-2.416c0.591-0.683,1.479-1.022,2.659-1.022h2.92v-7.509
		c0-2.201,0.336-4.293,1.009-6.274c0.672-1.981,1.697-3.726,3.076-5.231c1.379-1.507,3.105-2.705,5.18-3.599
		c2.075-0.893,4.525-1.339,7.354-1.339c1.878,0,3.575,0.238,5.093,0.713c1.521,0.479,2.874,1.136,4.067,1.981
		c1.19,0.847,2.242,1.843,3.146,2.986c0.904,1.147,1.691,2.385,2.364,3.703l-4.312,2.711c-0.976,0.513-1.919,0.736-2.833,0.681
		c-0.916-0.061-1.758-0.492-2.521-1.307c-0.881-0.9-1.681-1.574-2.396-2.016c-0.722-0.44-1.591-0.661-2.607-0.661
		c-1.877,0-3.273,0.655-4.188,1.965c-0.916,1.313-1.371,3.192-1.371,5.648v7.544h13.21v4.103c0,0.351-0.075,0.681-0.229,0.99
		c-0.15,0.313-0.359,0.599-0.625,0.854c-0.267,0.256-0.58,0.457-0.938,0.605c-0.36,0.151-0.763,0.229-1.2,0.229h-10.22v5.424
		c0,1.391-0.264,2.646-0.782,3.771c-0.521,1.125-1.226,2.173-2.104,3.146c1.043-0.231,2.086-0.411,3.129-0.539
		c1.043-0.127,2.1-0.191,3.163-0.191h17.451v4.415c0,0.512-0.107,1.032-0.33,1.564c-0.221,0.533-0.524,1.015-0.921,1.44
		c-0.395,0.432-0.875,0.776-1.439,1.044c-0.568,0.269-1.2,0.398-1.896,0.398h-33.164v-6.466c0.766-0.143,1.5-0.359,2.207-0.661
		c0.707-0.301,1.327-0.684,1.86-1.146c0.53-0.463,0.961-1.02,1.286-1.669c0.321-0.646,0.483-1.399,0.483-2.26v-8.271h-6.466
		L742.038,620.973L742.038,620.973z"/>
	<path fill="#FFFFFF" d="M796.86,611.969c0.946-0.185,1.862-0.313,2.745-0.382c0.881-0.069,1.736-0.104,2.57-0.104
		c2.665,0,5.021,0.403,7.06,1.217c2.039,0.812,3.755,1.918,5.146,3.317c1.391,1.402,2.438,3.051,3.146,4.938
		c0.706,1.889,1.06,3.91,1.06,6.063c0,2.714-0.479,5.188-1.442,7.426c-0.962,2.233-2.301,4.166-4.016,5.788
		c-1.715,1.621-3.76,2.88-6.136,3.771s-4.979,1.339-7.804,1.339c-1.646,0-3.219-0.174-4.714-0.521
		c-1.492-0.35-2.896-0.817-4.205-1.408c-1.311-0.591-2.521-1.274-3.634-2.051c-1.109-0.777-2.121-1.604-3.021-2.486l3.337-4.449
		c0.348-0.464,0.753-0.814,1.217-1.061c0.463-0.243,0.962-0.365,1.495-0.365c0.695,0,1.35,0.19,1.964,0.574
		c0.614,0.382,1.286,0.799,2.017,1.251c0.729,0.452,1.581,0.863,2.558,1.231c0.974,0.371,2.179,0.559,3.614,0.559
		c1.438,0,2.664-0.237,3.687-0.712c1.021-0.478,1.848-1.124,2.485-1.947c0.637-0.822,1.101-1.784,1.391-2.885
		c0.289-1.104,0.436-2.277,0.436-3.529c0-2.456-0.693-4.328-2.087-5.614c-1.391-1.286-3.357-1.929-5.907-1.929
		c-2.271,0-4.496,0.429-6.677,1.286l-6.675-1.811l4.313-25.343h25.934v4.449c0,0.742-0.116,1.414-0.348,2.017
		c-0.232,0.604-0.6,1.131-1.098,1.582c-0.497,0.451-1.15,0.799-1.965,1.043c-0.812,0.243-1.783,0.364-2.92,0.364h-12.098
		L796.86,611.969z"/>
	<path fill="#FFFFFF" d="M843.338,625.597c0.324-0.394,0.639-0.773,0.939-1.146c0.301-0.37,0.578-0.741,0.834-1.112
		c-2.133,1.136-4.557,1.703-7.269,1.703c-1.646,0-3.291-0.295-4.937-0.886c-1.646-0.592-3.137-1.489-4.467-2.694
		c-1.333-1.205-2.416-2.724-3.251-4.555c-0.834-1.83-1.251-3.997-1.251-6.5c0-2.295,0.422-4.462,1.269-6.501
		c0.846-2.039,2.051-3.824,3.615-5.354c1.563-1.527,3.436-2.738,5.612-3.633c2.18-0.893,4.611-1.339,7.303-1.339
		c2.732,0,5.18,0.417,7.335,1.252c2.153,0.834,3.979,2.005,5.476,3.511c1.494,1.509,2.645,3.297,3.441,5.371
		s1.197,4.362,1.197,6.866c0,3.314-0.498,6.28-1.493,8.899c-0.996,2.616-2.329,5.087-3.997,7.401l-10.916,15.505
		c-0.487,0.672-1.225,1.24-2.208,1.703c-0.985,0.464-2.104,0.695-3.354,0.695h-9.939L843.338,625.597z M834.717,609.605
		c0,5.053,2.341,7.575,7.022,7.575c2.294,0,4.062-0.688,5.302-2.065c1.239-1.379,1.859-3.216,1.859-5.51
		c0-1.229-0.183-2.313-0.539-3.254c-0.359-0.938-0.857-1.721-1.494-2.347c-0.639-0.625-1.408-1.1-2.313-1.425
		c-0.903-0.324-1.889-0.486-2.955-0.486c-1.089,0-2.057,0.19-2.899,0.573c-0.85,0.383-1.564,0.91-2.155,1.582
		s-1.043,1.466-1.354,2.381C834.873,607.549,834.717,608.539,834.717,609.605z"/>
	<path fill="#FFFFFF" d="M900.419,594.136v4.521c0,1.345-0.151,2.429-0.452,3.251c-0.302,0.819-0.591,1.512-0.869,2.065
		l-17.591,37.27c-0.485,0.974-1.176,1.808-2.067,2.503c-0.893,0.695-2.08,1.043-3.563,1.043h-7.855l18.076-36.259
		c0.533-0.977,1.072-1.859,1.617-2.659c0.544-0.8,1.152-1.561,1.824-2.277h-22.283c-0.325,0-0.632-0.063-0.921-0.188
		c-0.29-0.128-0.545-0.303-0.767-0.521c-0.222-0.221-0.398-0.476-0.537-0.766c-0.143-0.289-0.209-0.585-0.209-0.886v-7.095
		L900.419,594.136L900.419,594.136z"/>
</g>
<g>
	<path fill="#504887" d="M740.239,119.889l-7.406,23.98h-5.036l-4.51-14.862c-0.088-0.23-0.17-0.485-0.247-0.765
		c-0.076-0.28-0.153-0.573-0.23-0.881c-0.074,0.308-0.151,0.601-0.229,0.881c-0.077,0.28-0.159,0.535-0.247,0.765l-4.575,14.862
		h-5.037l-7.404-23.98h4.675c0.48,0,0.886,0.11,1.209,0.33c0.322,0.219,0.535,0.51,0.634,0.872l3.292,12.508
		c0.099,0.395,0.197,0.826,0.296,1.292c0.099,0.466,0.198,0.952,0.297,1.457c0.197-1.031,0.438-1.947,0.726-2.749l3.885-12.508
		c0.099-0.307,0.31-0.584,0.633-0.831c0.324-0.247,0.717-0.371,1.178-0.371h1.646c0.48,0,0.872,0.113,1.168,0.337
		c0.297,0.225,0.521,0.513,0.675,0.864l3.852,12.508c0.285,0.768,0.526,1.641,0.727,2.617c0.087-0.494,0.178-0.957,0.271-1.391
		c0.095-0.433,0.189-0.842,0.288-1.226l3.291-12.508c0.088-0.318,0.297-0.598,0.626-0.839s0.726-0.362,1.187-0.362H740.239
		L740.239,119.889z"/>
	<path fill="#504887" d="M747.563,122.128c0,0.406-0.08,0.787-0.244,1.144c-0.165,0.357-0.392,0.669-0.677,0.938
		c-0.284,0.269-0.615,0.483-0.995,0.642c-0.379,0.159-0.781,0.239-1.211,0.239c-0.416,0-0.807-0.08-1.168-0.239
		c-0.36-0.159-0.684-0.373-0.963-0.642c-0.278-0.269-0.5-0.581-0.658-0.938c-0.157-0.356-0.237-0.738-0.237-1.144
		c0-0.417,0.08-0.807,0.237-1.169c0.158-0.362,0.38-0.68,0.658-0.955c0.279-0.274,0.603-0.488,0.963-0.642
		c0.361-0.154,0.751-0.23,1.168-0.23c0.43,0,0.831,0.077,1.211,0.23c0.38,0.153,0.711,0.368,0.995,0.642
		c0.285,0.274,0.512,0.593,0.677,0.955C747.481,121.321,747.563,121.711,747.563,122.128z M747.037,126.802v17.067h-5.104v-17.067
		H747.037z"/>
	<path fill="#504887" d="M756.714,144.132c-0.812,0-1.528-0.118-2.146-0.354c-0.62-0.236-1.144-0.571-1.563-1.004
		c-0.423-0.434-0.744-0.958-0.963-1.572c-0.22-0.615-0.329-1.3-0.329-2.058v-8.822h-1.448c-0.264,0-0.486-0.084-0.675-0.255
		c-0.187-0.17-0.28-0.42-0.28-0.749v-1.991l2.718-0.527l1.004-4.164c0.132-0.526,0.505-0.79,1.119-0.79h2.666v4.987h4.229v3.489
		h-4.229v8.476c0,0.395,0.097,0.722,0.288,0.979c0.19,0.258,0.47,0.387,0.831,0.387c0.187,0,0.343-0.019,0.47-0.058
		c0.126-0.038,0.233-0.083,0.329-0.132c0.093-0.049,0.181-0.093,0.263-0.131c0.083-0.039,0.179-0.058,0.288-0.058
		c0.154,0,0.277,0.036,0.37,0.107c0.094,0.071,0.188,0.184,0.288,0.337l1.548,2.419c-0.658,0.494-1.399,0.864-2.225,1.111
		C758.442,144.009,757.592,144.132,756.714,144.132z"/>
	<path fill="#504887" d="M768.35,128.3c0.614-0.527,1.281-0.952,2-1.276c0.721-0.323,1.577-0.485,2.575-0.485
		c0.935,0,1.759,0.162,2.479,0.485c0.719,0.324,1.322,0.773,1.816,1.35s0.867,1.262,1.119,2.058c0.252,0.796,0.379,1.66,0.379,2.592
		v10.846h-5.103v-10.846c0-0.833-0.192-1.484-0.576-1.95c-0.384-0.466-0.949-0.699-1.695-0.699c-0.56,0-1.083,0.118-1.569,0.354
		c-0.488,0.236-0.965,0.557-1.426,0.963v12.179h-5.102v-24.638h5.102V128.3L768.35,128.3z"/>
	<path fill="#504887" d="M789.877,126.539c1.295,0,2.475,0.203,3.539,0.609c1.064,0.406,1.979,0.987,2.74,1.745
		c0.763,0.757,1.354,1.676,1.775,2.757c0.424,1.081,0.636,2.296,0.636,3.646c0,1.36-0.212,2.587-0.636,3.678
		c-0.422,1.092-1.015,2.019-1.775,2.782c-0.763,0.763-1.676,1.35-2.74,1.761c-1.064,0.412-2.244,0.617-3.539,0.617
		c-1.306,0-2.493-0.206-3.563-0.617c-1.07-0.411-1.992-0.998-2.768-1.761c-0.772-0.763-1.371-1.69-1.794-2.782
		c-0.422-1.091-0.633-2.318-0.633-3.678c0-1.35,0.211-2.565,0.633-3.646c0.423-1.081,1.021-2,1.794-2.757
		c0.773-0.757,1.695-1.338,2.768-1.745C787.384,126.742,788.571,126.539,789.877,126.539z M789.877,140.347
		c1.175,0,2.038-0.414,2.593-1.243c0.556-0.828,0.831-2.087,0.831-3.777c0-1.689-0.275-2.946-0.831-3.769
		c-0.555-0.823-1.418-1.234-2.593-1.234c-1.207,0-2.09,0.412-2.648,1.234c-0.561,0.823-0.84,2.08-0.84,3.769
		c0,1.69,0.279,2.949,0.84,3.777C787.787,139.933,788.67,140.347,789.877,140.347z"/>
	<path fill="#504887" d="M816.44,126.802v17.067h-3.16c-0.636,0-1.055-0.285-1.251-0.856l-0.296-0.987
		c-0.329,0.318-0.669,0.606-1.021,0.864c-0.351,0.258-0.727,0.478-1.127,0.659c-0.4,0.181-0.834,0.323-1.301,0.428
		c-0.466,0.104-0.976,0.156-1.522,0.156c-0.933,0-1.758-0.162-2.477-0.485c-0.719-0.323-1.325-0.776-1.818-1.358
		c-0.494-0.582-0.867-1.267-1.119-2.057c-0.253-0.79-0.379-1.657-0.379-2.601v-10.83h5.104v10.83c0,0.845,0.189,1.498,0.575,1.958
		c0.385,0.461,0.947,0.691,1.693,0.691c0.562,0,1.084-0.118,1.572-0.354c0.488-0.236,0.963-0.557,1.424-0.963v-12.163
		L816.44,126.802L816.44,126.802z"/>
	<path fill="#504887" d="M826.002,144.132c-0.812,0-1.528-0.118-2.146-0.354c-0.62-0.236-1.144-0.571-1.563-1.004
		c-0.423-0.434-0.744-0.958-0.963-1.572c-0.22-0.615-0.329-1.3-0.329-2.058v-8.822h-1.448c-0.264,0-0.486-0.084-0.675-0.255
		c-0.187-0.17-0.28-0.42-0.28-0.749v-1.991l2.718-0.527l1.004-4.164c0.132-0.526,0.505-0.79,1.119-0.79h2.666v4.987h4.229v3.489
		h-4.229v8.476c0,0.395,0.097,0.722,0.288,0.979c0.19,0.258,0.47,0.387,0.829,0.387c0.188,0,0.345-0.019,0.472-0.058
		c0.126-0.038,0.233-0.083,0.329-0.132c0.093-0.049,0.181-0.093,0.263-0.131c0.083-0.039,0.179-0.058,0.288-0.058
		c0.153,0,0.276,0.036,0.37,0.107c0.094,0.071,0.188,0.184,0.288,0.337l1.548,2.419c-0.658,0.494-1.399,0.864-2.225,1.111
		C827.73,144.009,826.88,144.132,826.002,144.132z"/>
	<path fill="#504887" d="M839.761,129.172c1.031-0.911,2.175-1.588,3.434-2.033c1.256-0.444,2.603-0.667,4.038-0.667
		c1.031,0,1.964,0.167,2.791,0.502c0.828,0.335,1.529,0.801,2.105,1.399s1.018,1.309,1.325,2.131
		c0.307,0.823,0.461,1.723,0.461,2.699v10.665h-2.337c-0.483,0-0.848-0.066-1.095-0.197c-0.247-0.132-0.453-0.406-0.617-0.823
		l-0.362-0.938c-0.428,0.362-0.839,0.68-1.234,0.955c-0.395,0.274-0.804,0.508-1.226,0.699c-0.423,0.192-0.873,0.335-1.35,0.428
		c-0.479,0.093-1.007,0.14-1.589,0.14c-0.779,0-1.486-0.102-2.123-0.304c-0.639-0.203-1.179-0.502-1.621-0.897
		c-0.444-0.395-0.787-0.886-1.028-1.473s-0.362-1.265-0.362-2.033c0-0.614,0.153-1.237,0.461-1.868
		c0.309-0.631,0.841-1.207,1.599-1.729c0.757-0.521,1.776-0.957,3.061-1.308c1.285-0.351,2.902-0.549,4.855-0.593v-0.724
		c0-0.998-0.206-1.72-0.617-2.164c-0.411-0.444-0.996-0.667-1.753-0.667c-0.604,0-1.098,0.065-1.481,0.197
		c-0.384,0.132-0.727,0.28-1.026,0.444c-0.303,0.164-0.598,0.313-0.881,0.444c-0.285,0.132-0.625,0.198-1.021,0.198
		c-0.354,0-0.648-0.088-0.89-0.264c-0.241-0.175-0.438-0.384-0.593-0.625L839.761,129.172z M848.944,136.924
		c-1.021,0.044-1.859,0.131-2.52,0.263s-1.18,0.296-1.563,0.494c-0.386,0.198-0.65,0.423-0.8,0.675
		c-0.148,0.252-0.223,0.527-0.223,0.823c0,0.582,0.158,0.99,0.479,1.226c0.317,0.236,0.783,0.354,1.397,0.354
		c0.658,0,1.234-0.115,1.729-0.345c0.492-0.23,0.992-0.604,1.498-1.119L848.944,136.924L848.944,136.924z"/>
	<path fill="#504887" d="M869.566,128.909c0.669-0.713,1.429-1.297,2.277-1.753c0.853-0.455,1.862-0.683,3.037-0.683
		c0.891,0,1.711,0.198,2.469,0.593s1.409,0.965,1.958,1.711c0.55,0.746,0.979,1.66,1.292,2.74c0.313,1.081,0.471,2.307,0.471,3.679
		c0,1.284-0.18,2.469-0.534,3.555c-0.357,1.086-0.856,2.03-1.498,2.831s-1.41,1.426-2.304,1.876
		c-0.896,0.45-1.887,0.675-2.973,0.675c-0.89,0-1.636-0.126-2.238-0.378c-0.604-0.252-1.15-0.592-1.646-1.021v6.55h-5.104v-22.482
		h3.159c0.639,0,1.056,0.286,1.251,0.856L869.566,128.909z M869.879,139.228c0.384,0.417,0.801,0.713,1.251,0.889
		c0.45,0.176,0.922,0.263,1.415,0.263c0.472,0,0.905-0.093,1.301-0.28c0.396-0.187,0.737-0.485,1.028-0.897
		c0.291-0.411,0.519-0.946,0.685-1.604c0.163-0.658,0.245-1.459,0.245-2.403c0-0.9-0.063-1.657-0.195-2.271
		c-0.134-0.614-0.315-1.111-0.554-1.489c-0.233-0.379-0.518-0.65-0.847-0.815c-0.33-0.165-0.697-0.247-1.104-0.247
		c-0.744,0-1.358,0.137-1.843,0.411c-0.481,0.274-0.942,0.675-1.383,1.202L869.879,139.228L869.879,139.228z"/>
	<path fill="#504887" d="M888.806,119.231v24.638h-5.102v-24.638H888.806z"/>
	<path fill="#504887" d="M891.883,129.172c1.031-0.911,2.175-1.588,3.432-2.033c1.258-0.444,2.604-0.667,4.041-0.667
		c1.03,0,1.962,0.167,2.789,0.502c0.828,0.335,1.53,0.801,2.106,1.399s1.019,1.309,1.325,2.131c0.307,0.823,0.461,1.723,0.461,2.699
		v10.665H903.7c-0.483,0-0.849-0.066-1.095-0.197c-0.247-0.132-0.453-0.406-0.617-0.823l-0.362-0.938
		c-0.428,0.362-0.839,0.68-1.233,0.955c-0.396,0.274-0.805,0.508-1.227,0.699c-0.423,0.192-0.873,0.335-1.35,0.428
		c-0.479,0.093-1.008,0.14-1.59,0.14c-0.778,0-1.485-0.102-2.123-0.304c-0.638-0.203-1.178-0.502-1.62-0.897
		c-0.444-0.395-0.787-0.886-1.028-1.473s-0.362-1.265-0.362-2.033c0-0.614,0.153-1.237,0.461-1.868
		c0.309-0.631,0.839-1.207,1.599-1.729c0.757-0.521,1.775-0.957,3.061-1.308s2.902-0.549,4.855-0.593v-0.724
		c0-0.998-0.206-1.72-0.617-2.164c-0.411-0.444-0.996-0.667-1.753-0.667c-0.604,0-1.099,0.065-1.481,0.197
		c-0.384,0.132-0.727,0.28-1.027,0.444c-0.302,0.164-0.597,0.313-0.881,0.444c-0.285,0.132-0.625,0.198-1.021,0.198
		c-0.353,0-0.648-0.088-0.892-0.264c-0.239-0.175-0.438-0.384-0.592-0.625L891.883,129.172z M901.066,136.924
		c-1.021,0.044-1.859,0.131-2.52,0.263s-1.18,0.296-1.563,0.494c-0.387,0.198-0.65,0.423-0.801,0.675
		c-0.146,0.252-0.222,0.527-0.222,0.823c0,0.582,0.158,0.99,0.479,1.226c0.317,0.236,0.784,0.354,1.397,0.354
		c0.658,0,1.234-0.115,1.729-0.345s0.991-0.604,1.498-1.119L901.066,136.924L901.066,136.924z"/>
	<path fill="#504887" d="M914.003,128.645c0.329-0.307,0.669-0.592,1.021-0.855c0.353-0.264,0.729-0.486,1.129-0.667
		c0.398-0.181,0.834-0.323,1.3-0.428c0.467-0.104,0.974-0.156,1.521-0.156c0.935,0,1.76,0.162,2.479,0.485
		c0.719,0.324,1.323,0.773,1.817,1.35c0.493,0.577,0.866,1.262,1.118,2.058c0.252,0.796,0.38,1.66,0.38,2.592v10.846h-5.104v-10.846
		c0-0.833-0.192-1.484-0.576-1.95c-0.384-0.466-0.949-0.699-1.695-0.699c-0.56,0-1.082,0.118-1.569,0.354
		c-0.488,0.236-0.964,0.557-1.425,0.963v12.179h-5.103v-17.067h3.159c0.637,0,1.054,0.286,1.251,0.856L914.003,128.645z"/>
</g>
</svg>
