<?xml version="1.0" encoding="utf-8"?>
<!-- Generator: Adobe Illustrator 16.0.0, SVG Export Plug-In . SVG Version: 6.00 Build 0)  -->
<!DOCTYPE svg PUBLIC "-//W3C//DTD SVG 1.1//EN" "http://www.w3.org/Graphics/SVG/1.1/DTD/svg11.dtd">
<svg version="1.1" id="Layer_1" xmlns="http://www.w3.org/2000/svg" xmlns:xlink="http://www.w3.org/1999/xlink" x="0px" y="0px"
	 width="160px" height="160px" viewBox="0 0 160 160" enable-background="new 0 0 160 160" xml:space="preserve">
<path display="none" fill="#000586" d="M158.415,72.258c0.929,1.943,0.125,4.261-1.813,5.247l-8.949,4.517
	c-0.973,0.49-2.106,0.576-3.142,0.23c-1.038-0.354-1.891-1.097-2.356-2.069l-22.368-46.619c-0.929-1.943-0.126-4.261,1.813-5.247
	l8.95-4.516c0.972-0.491,2.106-0.577,3.146-0.231c1.039,0.351,1.886,1.097,2.353,2.068L158.415,72.258z M136.719,82.518
	l-21.138-44.051c-11.341,0.466-19.026-5.185-31.79-5.252c-3.444-0.019-9.917,2.116-15.838,4.925H44.574l-3.521,7.33l15.631-0.034
	c-0.269,0.289-0.519,0.582-0.721,0.861c-5.854,8.359-1.741,12.688-6.33,22.187c-2.453,5.093,5.627,8.696,11.625,6.233
	c5.204-2.131,10.485-6.921,11.375-14.044c0.308-2.52,3.799-5.896,7.57-5.82c2.414,0.048,3.751,0.409,5.752,0.842l3.005,3.213
	l39.56,34.461c2.545,1.816,3.116,5.361,1.278,7.883c-1.842,2.523-5.415,3.098-7.96,1.27c0,0-24.945-17.858-28.64-20.504
	c-3.693-2.641-7.031,1.938-3.339,4.584c3.281,2.348,23.25,16.646,27.718,19.85h-0.005c2.039,1.447,2.501,4.285,1.023,6.306
	c-1.472,2.025-4.328,2.481-6.367,1.021c0,0-21.242-15.217-24.942-17.862c-3.697-2.646-7.03,1.938-3.338,4.588
	c2.729,1.948,14.997,10.729,21.243,15.208c2.039,1.462,2.502,4.285,1.024,6.314c-1.472,2.024-4.327,2.478-6.368,1.016
	c0,0-15.701-11.24-19.396-13.896c-3.694-2.64-7.037,1.938-3.338,4.584c2.164,1.555,8.444,6.052,13.284,9.515
	c-0.067,0.782-0.271,1.558-0.76,2.241c-1.479,2.02-4.336,2.477-6.375,1.02l-2.716-2.063c-0.471-1.077-1.125-2.084-2.155-2.823
	c-0.938-0.669-1.991-0.986-3.059-1.13l-4.112-3.127c-0.034-2.236-1.073-4.435-3.044-5.844c-1.852-1.332-4.103-1.654-6.156-1.136
	l-2.376-1.809c0.164-2.616-0.967-5.257-3.271-6.906c-1.905-1.366-4.208-1.746-6.339-1.294l-1.765-1.717
	c1.13-3.219,0.101-6.906-2.823-9c-2.241-1.602-5.041-1.879-7.455-0.994L27.433,75.48l-2.78,5.792
	c-0.086,0.187-0.221,0.351-0.327,0.528l8.912,11.091l-5.613,7.711c-2.583,3.539-1.78,8.482,1.789,11.047
	c3.573,2.55,8.561,1.746,11.144-1.784c-2.583,3.53-1.779,8.483,1.79,11.043c3.554,2.538,8.508,1.765,11.105-1.731l-0.293,0.399
	c-2.4,3.294-1.654,7.888,1.664,10.264c3.314,2.376,7.95,1.636,10.346-1.659l1.664-2.285c-2.203,3.035-1.52,7.272,1.539,9.461
	c3.059,2.192,7.339,1.511,9.552-1.524l2-2.751c4.593,3.285,11.009,2.266,14.333-2.289c0.461-0.635,0.809-1.313,1.1-2.006
	c0.709,0.51,1.154,0.826,1.154,0.826c4.594,3.296,11.01,2.271,14.328-2.283c1.174-1.605,1.774-3.443,1.895-5.285
	c3.863,0.822,8.022-0.602,10.486-3.979c1.5-2.063,2.067-4.486,1.865-6.834c3.559,0.023,7.084-1.582,9.33-4.666
	c3.338-4.584,2.684-10.772-1.24-14.621L136.719,82.518z M1.586,72.258c-0.928,1.943-0.125,4.261,1.813,5.247l8.951,4.517
	c0.972,0.49,2.107,0.576,3.141,0.23c1.039-0.354,1.89-1.097,2.357-2.069l22.369-46.619c0.928-1.943,0.125-4.261-1.813-5.247
	l-8.951-4.516c-0.972-0.491-2.107-0.577-3.146-0.231c-1.039,0.351-1.885,1.097-2.352,2.068L1.586,72.258z"/>
<path display="none" fill="#000586" d="M45.148,71h67.706c0.636,0,1.146,0.513,1.146,1.147v2.705c0,0.635-0.512,1.147-1.146,1.147
	H45.148C44.513,76,44,75.487,44,74.853v-2.705C44,71.513,44.513,71,45.148,71z M45.148,61h67.706c0.636,0,1.146,0.513,1.146,1.147
	v2.705c0,0.635-0.512,1.147-1.146,1.147H45.148C44.513,66,44,65.487,44,64.853v-2.705C44,61.513,44.513,61,45.148,61z M45.148,51
	h67.706c0.636,0,1.146,0.513,1.146,1.147v2.705c0,0.635-0.512,1.147-1.146,1.147H45.148C44.513,56,44,55.487,44,54.853v-2.705
	C44,51.513,44.513,51,45.148,51z M124,6H58.146c-2.656,0-5.2,1.055-7.075,2.93L26.93,33.07C25.055,34.945,24,37.489,24,40.14V131
	c0,5.521,4.478,10,10,10h49.511l1.837-9.995H36.5c-1.382,0-2.5-1.118-2.5-2.505V40.995h15c5.522,0,10-4.473,10-10v-15h62.5
	c1.383,0,2.5,1.123,2.5,2.5V128.5c0,1.387-1.117,2.505-2.5,2.505h-3.828l1.826,9.995H124c5.523,0,10-4.479,10-10V16
	C134,10.478,129.523,6,124,6z M114,118.5c0-6.904-5.596-12.5-12.5-12.5S89,111.596,89,118.5c0,4.009,1.924,7.539,4.854,9.824
	l-4.834,26.455c-0.067,0.371,0.068,0.746,0.361,0.986c0.293,0.238,0.689,0.297,1.035,0.16l11.09-4.434l11.078,4.434
	c0.348,0.137,0.742,0.078,1.035-0.16c0.293-0.24,0.43-0.615,0.361-0.986l-4.838-26.455C112.076,126.039,114,122.509,114,118.5z
	 M44,84.854C44,85.486,44.513,86,45.148,86h67.706c0.636,0,1.146-0.514,1.146-1.146v-2.705c0-0.635-0.512-1.147-1.146-1.147H45.148
	C44.513,81,44,81.514,44,82.146V84.854z M44,94.854C44,95.486,44.513,96,45.148,96h67.706c0.636,0,1.146-0.514,1.146-1.146v-2.705
	c0-0.635-0.512-1.147-1.146-1.147H45.148C44.513,91,44,91.514,44,92.146V94.854z M104,32.147c0-0.635-0.512-1.147-1.146-1.147
	H75.148C74.513,31,74,31.513,74,32.147v2.705C74,35.487,74.513,36,75.148,36h27.706c0.636,0,1.146-0.513,1.146-1.147V32.147z
	 M77.853,111H45.148c-0.635,0-1.147,0.514-1.147,1.146v2.705c0,0.635,0.513,1.147,1.147,1.147h32.705
	c0.635,0,1.147-0.513,1.147-1.147v-2.705C79,111.514,78.488,111,77.853,111z"/>
<path fill="#26366B" d="M29.149,65.667h57.705c0.636,0,1.147,0.513,1.147,1.147v2.705c0,0.635-0.513,1.147-1.147,1.147H29.149
	c-0.635,0-1.147-0.513-1.147-1.147v-2.705C28.002,66.179,28.515,65.667,29.149,65.667z M29.149,75.667
	c-0.635,0-1.147,0.513-1.147,1.147v2.706c0,0.635,0.513,1.146,1.147,1.146h54.106l5-5L29.149,75.667L29.149,75.667z
	 M103.002,138.166c0,1.383-1.118,2.5-2.5,2.5h-85c-1.382,0-2.5-1.117-2.5-2.5v-92.5h15c5.522,0,10-4.478,10-10v-15h62.5
	c1.382,0,2.5,1.118,2.5,2.5V60.92l10-10V20.667c0-5.522-4.479-10-10-10H37.143c-2.651,0-5.195,1.055-7.07,2.93L5.932,37.737
	c-1.875,1.875-2.93,4.419-2.93,7.07v95.859c0,5.523,4.478,10,10,10h90c5.521,0,10-4.477,10-10v-40.254l-10,10V138.166z M73.3,90.666
	c0.264-0.268,0.493-0.537,0.762-0.805l4.194-4.195H29.149c-0.635,0-1.147,0.514-1.147,1.148v2.705c0,0.635,0.513,1.146,1.147,1.146
	L73.3,90.666L73.3,90.666z M53.002,44.519c0,0.635,0.513,1.147,1.147,1.147h32.705c0.636,0,1.147-0.513,1.147-1.147v-2.705
	c0-0.635-0.513-1.147-1.147-1.147H54.149c-0.635,0-1.147,0.513-1.147,1.147V44.519z M54.149,35.667h32.705
	c0.636,0,1.147-0.513,1.147-1.147v-2.705c0-0.635-0.513-1.147-1.147-1.147H54.149c-0.635,0-1.147,0.513-1.147,1.147v2.705
	C53.002,35.154,53.515,35.667,54.149,35.667z M30.404,125.666c1.387,0.016,2.549-1.02,2.598-2.402
	c0.322-8.223,2.324-15.82,4.355-17.334c0.762,2.33,1.011,8.652,1.152,12.242c0.342,8.584,0.498,12.494,3.984,12.494
	c3.687,0,5.762-3.373,7.271-5.844c0.181-0.299,0.405-0.664,0.63-1.002c0.205,0.348,0.41,0.723,0.571,1.012
	c1.23,2.25,4.419,5.834,8.911,5.834c0.479,0,0.957-0.18,1.323-0.547l2.236-2.23c5.366,1.166,17.573-6.09,30.068-18.584
	c1.304-1.305,2.856-2.856,4.585-4.586L83.943,90.584c-1.703,1.703-3.291,3.291-4.579,4.58c-12.5,12.5-19.751,24.707-18.579,30.078
	l-0.913,0.912c-2.886,0-3.833-1.563-5.024-3.725c-0.801-1.462-1.206-3.111-2.861-3.972c-3.174-1.631-5.254,1.733-6.484,3.756
	c-0.435,0.707-1.025,1.675-1.621,2.412c-0.186-1.846-0.293-4.512-0.376-6.655c-0.396-10.05-0.688-17.306-5.459-17.306
	c-8.506,0-9.829,17.096-10.039,22.401C27.953,124.445,29.027,125.613,30.404,125.666z M157.001,58.66
	c-1.313-1.309-3.457-1.309-4.767-0.005l-2.969,2.969l-4.037-4.043c2.982-2.979,4.849-4.844,4.849-4.844
	c3.901-3.906,3.901-10.239,0-14.141c-3.906-3.906-10.239-3.906-14.146,0c0,0-30.172,30.171-48.102,48.101l14.146,14.135
	c11.532-11.533,28.104-28.1,38.485-38.481l4.033,4.043l-23.818,23.813c-1.309,1.318-1.309,3.453,0,4.785
	c1.323,1.314,17.599-12.826,36.333-31.557C158.344,62.097,158.318,59.988,157.001,58.66z"/>
</svg>
